<svg width="1920" height="1080" viewBox="0 0 1920 1080" fill="none" xmlns="http://www.w3.org/2000/svg">
<rect width="1920" height="1080" fill="white"/>
<rect x="24" y="124" width="142" height="314" fill="#D9D9D9"/>
<path d="M40.4091 281V269.364H41.8182V279.75H47.2273V281H40.4091ZM49.2273 281V272.273H50.5682V281H49.2273ZM49.9091 270.818C49.6477 270.818 49.4223 270.729 49.233 270.551C49.0473 270.373 48.9545 270.159 48.9545 269.909C48.9545 269.659 49.0473 269.445 49.233 269.267C49.4223 269.089 49.6477 269 49.9091 269C50.1705 269 50.3939 269.089 50.5795 269.267C50.7689 269.445 50.8636 269.659 50.8636 269.909C50.8636 270.159 50.7689 270.373 50.5795 270.551C50.3939 270.729 50.1705 270.818 49.9091 270.818ZM59.206 274.227L58.0014 274.568C57.9257 274.367 57.8139 274.172 57.6662 273.983C57.5223 273.79 57.3253 273.631 57.0753 273.506C56.8253 273.381 56.5052 273.318 56.1151 273.318C55.581 273.318 55.1359 273.441 54.7798 273.688C54.4276 273.93 54.2514 274.239 54.2514 274.614C54.2514 274.947 54.3726 275.21 54.6151 275.403C54.8575 275.597 55.2363 275.758 55.7514 275.886L57.0469 276.205C57.8272 276.394 58.4086 276.684 58.7912 277.074C59.1738 277.46 59.3651 277.958 59.3651 278.568C59.3651 279.068 59.2211 279.515 58.9332 279.909C58.6491 280.303 58.2514 280.614 57.7401 280.841C57.2287 281.068 56.634 281.182 55.956 281.182C55.0658 281.182 54.3291 280.989 53.7457 280.602C53.1624 280.216 52.7931 279.652 52.6378 278.909L53.9105 278.591C54.0317 279.061 54.2609 279.413 54.598 279.648C54.9389 279.883 55.384 280 55.9332 280C56.5582 280 57.0545 279.867 57.4219 279.602C57.7931 279.333 57.9787 279.011 57.9787 278.636C57.9787 278.333 57.8726 278.08 57.6605 277.875C57.4484 277.667 57.1226 277.511 56.6832 277.409L55.2287 277.068C54.4295 276.879 53.8423 276.585 53.4673 276.188C53.0961 275.786 52.9105 275.284 52.9105 274.682C52.9105 274.189 53.0488 273.754 53.3253 273.375C53.6056 272.996 53.9863 272.699 54.4673 272.483C54.9522 272.267 55.5014 272.159 56.1151 272.159C56.9787 272.159 57.6567 272.348 58.1491 272.727C58.6454 273.106 58.9976 273.606 59.206 274.227ZM65.179 272.273V273.409H60.6562V272.273H65.179ZM61.9744 270.182H63.3153V278.5C63.3153 278.879 63.3703 279.163 63.4801 279.352C63.5938 279.538 63.7377 279.663 63.9119 279.727C64.09 279.788 64.2775 279.818 64.4744 279.818C64.6222 279.818 64.7434 279.811 64.8381 279.795C64.9328 279.777 65.0085 279.761 65.0653 279.75L65.3381 280.955C65.2472 280.989 65.1203 281.023 64.9574 281.057C64.7945 281.095 64.5881 281.114 64.3381 281.114C63.9593 281.114 63.5881 281.032 63.2244 280.869C62.8646 280.706 62.5653 280.458 62.3267 280.125C62.0919 279.792 61.9744 279.371 61.9744 278.864V270.182ZM40.4091 295V283.364H44.4773C45.2879 283.364 45.9564 283.504 46.483 283.784C47.0095 284.061 47.4015 284.434 47.6591 284.903C47.9167 285.369 48.0455 285.886 48.0455 286.455C48.0455 286.955 47.9564 287.367 47.7784 287.693C47.6042 288.019 47.3731 288.277 47.0852 288.466C46.8011 288.655 46.4924 288.795 46.1591 288.886V289C46.5152 289.023 46.8731 289.148 47.233 289.375C47.5928 289.602 47.8939 289.928 48.1364 290.352C48.3788 290.777 48.5 291.295 48.5 291.909C48.5 292.492 48.3674 293.017 48.1023 293.483C47.8371 293.949 47.4186 294.318 46.8466 294.591C46.2746 294.864 45.5303 295 44.6136 295H40.4091ZM41.8182 293.75H44.6136C45.5341 293.75 46.1875 293.572 46.5739 293.216C46.964 292.856 47.1591 292.42 47.1591 291.909C47.1591 291.515 47.0587 291.152 46.858 290.818C46.6572 290.481 46.3712 290.212 46 290.011C45.6288 289.807 45.1894 289.705 44.6818 289.705H41.8182V293.75ZM41.8182 288.477H44.4318C44.8561 288.477 45.2386 288.394 45.5795 288.227C45.9242 288.061 46.197 287.826 46.3977 287.523C46.6023 287.22 46.7045 286.864 46.7045 286.455C46.7045 285.943 46.5265 285.509 46.1705 285.153C45.8144 284.794 45.25 284.614 44.4773 284.614H41.8182V288.477ZM56.1335 291.432V286.273H57.4744V295H56.1335V293.523H56.0426C55.8381 293.966 55.5199 294.343 55.0881 294.653C54.6563 294.96 54.1108 295.114 53.4517 295.114C52.9062 295.114 52.4214 294.994 51.9972 294.756C51.5729 294.513 51.2396 294.15 50.9972 293.665C50.7547 293.176 50.6335 292.561 50.6335 291.818V286.273H51.9744V291.727C51.9744 292.364 52.1525 292.871 52.5085 293.25C52.8684 293.629 53.3267 293.818 53.8835 293.818C54.2169 293.818 54.5559 293.733 54.9006 293.562C55.2491 293.392 55.5407 293.131 55.7756 292.778C56.0142 292.426 56.1335 291.977 56.1335 291.432ZM63.7259 286.273V287.409H59.2031V286.273H63.7259ZM60.5213 284.182H61.8622V292.5C61.8622 292.879 61.9171 293.163 62.027 293.352C62.1406 293.538 62.2846 293.663 62.4588 293.727C62.6368 293.788 62.8243 293.818 63.0213 293.818C63.169 293.818 63.2902 293.811 63.3849 293.795C63.4796 293.777 63.5554 293.761 63.6122 293.75L63.8849 294.955C63.794 294.989 63.6671 295.023 63.5043 295.057C63.3414 295.095 63.1349 295.114 62.8849 295.114C62.5062 295.114 62.1349 295.032 61.7713 294.869C61.4115 294.706 61.1122 294.458 60.8736 294.125C60.6387 293.792 60.5213 293.371 60.5213 292.864V284.182ZM69.5384 286.273V287.409H65.0156V286.273H69.5384ZM66.3338 284.182H67.6747V292.5C67.6747 292.879 67.7296 293.163 67.8395 293.352C67.9531 293.538 68.0971 293.663 68.2713 293.727C68.4493 293.788 68.6368 293.818 68.8338 293.818C68.9815 293.818 69.1027 293.811 69.1974 293.795C69.2921 293.777 69.3679 293.761 69.4247 293.75L69.6974 294.955C69.6065 294.989 69.4796 295.023 69.3168 295.057C69.1539 295.095 68.9474 295.114 68.6974 295.114C68.3187 295.114 67.9474 295.032 67.5838 294.869C67.224 294.706 66.9247 294.458 66.6861 294.125C66.4512 293.792 66.3338 293.371 66.3338 292.864V284.182ZM75.0071 295.182C74.2192 295.182 73.5279 294.994 72.9332 294.619C72.3423 294.244 71.8802 293.72 71.5469 293.045C71.2173 292.371 71.0526 291.583 71.0526 290.682C71.0526 289.773 71.2173 288.979 71.5469 288.301C71.8802 287.623 72.3423 287.097 72.9332 286.722C73.5279 286.347 74.2192 286.159 75.0071 286.159C75.795 286.159 76.4844 286.347 77.0753 286.722C77.67 287.097 78.1321 287.623 78.4616 288.301C78.795 288.979 78.9616 289.773 78.9616 290.682C78.9616 291.583 78.795 292.371 78.4616 293.045C78.1321 293.72 77.67 294.244 77.0753 294.619C76.4844 294.994 75.795 295.182 75.0071 295.182ZM75.0071 293.977C75.6056 293.977 76.098 293.824 76.4844 293.517C76.8707 293.21 77.1567 292.807 77.3423 292.307C77.5279 291.807 77.6207 291.265 77.6207 290.682C77.6207 290.098 77.5279 289.555 77.3423 289.051C77.1567 288.547 76.8707 288.14 76.4844 287.83C76.098 287.519 75.6056 287.364 75.0071 287.364C74.4086 287.364 73.9162 287.519 73.5298 287.83C73.1435 288.14 72.8575 288.547 72.6719 289.051C72.4863 289.555 72.3935 290.098 72.3935 290.682C72.3935 291.265 72.4863 291.807 72.6719 292.307C72.8575 292.807 73.1435 293.21 73.5298 293.517C73.9162 293.824 74.4086 293.977 75.0071 293.977ZM82.3494 289.75V295H81.0085V286.273H82.304V287.636H82.4176C82.6222 287.193 82.9328 286.837 83.3494 286.568C83.7661 286.295 84.304 286.159 84.9631 286.159C85.554 286.159 86.071 286.28 86.5142 286.523C86.9574 286.761 87.3021 287.125 87.5483 287.614C87.7945 288.098 87.9176 288.712 87.9176 289.455V295H86.5767V289.545C86.5767 288.86 86.3987 288.326 86.0426 287.943C85.6866 287.557 85.1979 287.364 84.5767 287.364C84.1487 287.364 83.7661 287.456 83.429 287.642C83.0956 287.828 82.8324 288.098 82.6392 288.455C82.446 288.811 82.3494 289.242 82.3494 289.75ZM96.5497 288.227L95.3452 288.568C95.2694 288.367 95.1577 288.172 95.0099 287.983C94.866 287.79 94.669 287.631 94.419 287.506C94.169 287.381 93.849 287.318 93.4588 287.318C92.9247 287.318 92.4796 287.441 92.1236 287.688C91.7713 287.93 91.5952 288.239 91.5952 288.614C91.5952 288.947 91.7164 289.21 91.9588 289.403C92.2012 289.597 92.58 289.758 93.0952 289.886L94.3906 290.205C95.1709 290.394 95.7524 290.684 96.1349 291.074C96.5175 291.46 96.7088 291.958 96.7088 292.568C96.7088 293.068 96.5649 293.515 96.277 293.909C95.9929 294.303 95.5952 294.614 95.0838 294.841C94.5724 295.068 93.9777 295.182 93.2997 295.182C92.4096 295.182 91.6728 294.989 91.0895 294.602C90.5062 294.216 90.1368 293.652 89.9815 292.909L91.2543 292.591C91.3755 293.061 91.6046 293.413 91.9418 293.648C92.2827 293.883 92.7277 294 93.277 294C93.902 294 94.3982 293.867 94.7656 293.602C95.1368 293.333 95.3224 293.011 95.3224 292.636C95.3224 292.333 95.2164 292.08 95.0043 291.875C94.7921 291.667 94.4664 291.511 94.027 291.409L92.5724 291.068C91.7732 290.879 91.1861 290.585 90.8111 290.188C90.4399 289.786 90.2543 289.284 90.2543 288.682C90.2543 288.189 90.3925 287.754 90.669 287.375C90.9493 286.996 91.33 286.699 91.8111 286.483C92.2959 286.267 92.8452 286.159 93.4588 286.159C94.3224 286.159 95.0005 286.348 95.4929 286.727C95.9891 287.106 96.3414 287.606 96.5497 288.227Z" fill="black"/>
<rect x="1754" y="38" width="142" height="228" fill="#D9D9D9"/>
<rect x="1754" y="520" width="142" height="56" fill="#D9D9D9"/>
<rect x="1754" y="979" width="142" height="55" fill="#D9D9D9"/>
<rect x="181" y="38" width="614" height="996" fill="#D9D9D9"/>
<path d="M1777.77 144H1776.36C1776.28 143.595 1776.13 143.239 1775.93 142.932C1775.72 142.625 1775.47 142.367 1775.18 142.159C1774.88 141.947 1774.56 141.788 1774.2 141.682C1773.85 141.576 1773.48 141.523 1773.09 141.523C1772.39 141.523 1771.75 141.701 1771.18 142.057C1770.61 142.413 1770.16 142.938 1769.82 143.631C1769.48 144.324 1769.32 145.174 1769.32 146.182C1769.32 147.189 1769.48 148.04 1769.82 148.733C1770.16 149.426 1770.61 149.951 1771.18 150.307C1771.75 150.663 1772.39 150.841 1773.09 150.841C1773.48 150.841 1773.85 150.788 1774.2 150.682C1774.56 150.576 1774.88 150.419 1775.18 150.21C1775.47 149.998 1775.72 149.739 1775.93 149.432C1776.13 149.121 1776.28 148.765 1776.36 148.364H1777.77C1777.67 148.958 1777.47 149.491 1777.19 149.96C1776.91 150.43 1776.56 150.83 1776.15 151.159C1775.73 151.485 1775.26 151.733 1774.74 151.903C1774.23 152.074 1773.68 152.159 1773.09 152.159C1772.1 152.159 1771.22 151.917 1770.44 151.432C1769.67 150.947 1769.06 150.258 1768.62 149.364C1768.18 148.47 1767.95 147.409 1767.95 146.182C1767.95 144.955 1768.18 143.894 1768.62 143C1769.06 142.106 1769.67 141.417 1770.44 140.932C1771.22 140.447 1772.1 140.205 1773.09 140.205C1773.68 140.205 1774.23 140.29 1774.74 140.46C1775.26 140.631 1775.73 140.881 1776.15 141.21C1776.56 141.536 1776.91 141.934 1777.19 142.403C1777.47 142.869 1777.67 143.402 1777.77 144ZM1783.41 152.182C1782.63 152.182 1781.93 151.994 1781.34 151.619C1780.75 151.244 1780.29 150.72 1779.95 150.045C1779.62 149.371 1779.46 148.583 1779.46 147.682C1779.46 146.773 1779.62 145.979 1779.95 145.301C1780.29 144.623 1780.75 144.097 1781.34 143.722C1781.93 143.347 1782.63 143.159 1783.41 143.159C1784.2 143.159 1784.89 143.347 1785.48 143.722C1786.08 144.097 1786.54 144.623 1786.87 145.301C1787.2 145.979 1787.37 146.773 1787.37 147.682C1787.37 148.583 1787.2 149.371 1786.87 150.045C1786.54 150.72 1786.08 151.244 1785.48 151.619C1784.89 151.994 1784.2 152.182 1783.41 152.182ZM1783.41 150.977C1784.01 150.977 1784.5 150.824 1784.89 150.517C1785.28 150.21 1785.56 149.807 1785.75 149.307C1785.93 148.807 1786.03 148.265 1786.03 147.682C1786.03 147.098 1785.93 146.555 1785.75 146.051C1785.56 145.547 1785.28 145.14 1784.89 144.83C1784.5 144.519 1784.01 144.364 1783.41 144.364C1782.81 144.364 1782.32 144.519 1781.94 144.83C1781.55 145.14 1781.26 145.547 1781.08 146.051C1780.89 146.555 1780.8 147.098 1780.8 147.682C1780.8 148.265 1780.89 148.807 1781.08 149.307C1781.26 149.807 1781.55 150.21 1781.94 150.517C1782.32 150.824 1782.81 150.977 1783.41 150.977ZM1790.76 146.75V152H1789.41V143.273H1790.71V144.636H1790.82C1791.03 144.193 1791.34 143.837 1791.76 143.568C1792.17 143.295 1792.71 143.159 1793.37 143.159C1793.96 143.159 1794.48 143.28 1794.92 143.523C1795.36 143.761 1795.71 144.125 1795.95 144.614C1796.2 145.098 1796.32 145.712 1796.32 146.455V152H1794.98V146.545C1794.98 145.86 1794.8 145.326 1794.45 144.943C1794.09 144.557 1793.6 144.364 1792.98 144.364C1792.55 144.364 1792.17 144.456 1791.84 144.642C1791.5 144.828 1791.24 145.098 1791.05 145.455C1790.85 145.811 1790.76 146.242 1790.76 146.75ZM1802.57 143.273V144.409H1798.05V143.273H1802.57ZM1799.37 141.182H1800.71V149.5C1800.71 149.879 1800.76 150.163 1800.87 150.352C1800.98 150.538 1801.13 150.663 1801.3 150.727C1801.48 150.788 1801.67 150.818 1801.87 150.818C1802.01 150.818 1802.13 150.811 1802.23 150.795C1802.32 150.777 1802.4 150.761 1802.46 150.75L1802.73 151.955C1802.64 151.989 1802.51 152.023 1802.35 152.057C1802.19 152.095 1801.98 152.114 1801.73 152.114C1801.35 152.114 1800.98 152.032 1800.62 151.869C1800.26 151.706 1799.96 151.458 1799.72 151.125C1799.48 150.792 1799.37 150.371 1799.37 149.864V141.182ZM1807.15 152.205C1806.6 152.205 1806.1 152.1 1805.65 151.892C1805.2 151.68 1804.84 151.375 1804.58 150.977C1804.31 150.576 1804.18 150.091 1804.18 149.523C1804.18 149.023 1804.28 148.617 1804.47 148.307C1804.67 147.992 1804.93 147.746 1805.26 147.568C1805.59 147.39 1805.96 147.258 1806.35 147.17C1806.76 147.08 1807.16 147.008 1807.56 146.955C1808.09 146.886 1808.52 146.835 1808.85 146.801C1809.19 146.763 1809.43 146.701 1809.58 146.614C1809.74 146.527 1809.81 146.375 1809.81 146.159V146.114C1809.81 145.553 1809.66 145.117 1809.35 144.807C1809.05 144.496 1808.59 144.341 1807.97 144.341C1807.33 144.341 1806.83 144.481 1806.47 144.761C1806.1 145.042 1805.85 145.341 1805.7 145.659L1804.43 145.205C1804.65 144.674 1804.96 144.261 1805.34 143.966C1805.72 143.667 1806.14 143.458 1806.59 143.341C1807.04 143.22 1807.49 143.159 1807.93 143.159C1808.21 143.159 1808.53 143.193 1808.89 143.261C1809.26 143.326 1809.62 143.46 1809.96 143.665C1810.3 143.869 1810.59 144.178 1810.81 144.591C1811.04 145.004 1811.15 145.557 1811.15 146.25V152H1809.81V150.818H1809.75C1809.65 151.008 1809.5 151.21 1809.29 151.426C1809.08 151.642 1808.8 151.826 1808.44 151.977C1808.09 152.129 1807.66 152.205 1807.15 152.205ZM1807.36 151C1807.89 151 1808.34 150.896 1808.7 150.688C1809.07 150.479 1809.34 150.21 1809.53 149.881C1809.72 149.551 1809.81 149.205 1809.81 148.841V147.614C1809.76 147.682 1809.63 147.744 1809.44 147.801C1809.25 147.854 1809.03 147.902 1808.78 147.943C1808.53 147.981 1808.29 148.015 1808.06 148.045C1807.83 148.072 1807.64 148.095 1807.5 148.114C1807.15 148.159 1806.82 148.233 1806.52 148.335C1806.22 148.434 1805.98 148.583 1805.79 148.784C1805.61 148.981 1805.52 149.25 1805.52 149.591C1805.52 150.057 1805.69 150.409 1806.04 150.648C1806.38 150.883 1806.83 151 1807.36 151ZM1817.15 152.182C1816.33 152.182 1815.63 151.989 1815.03 151.602C1814.44 151.216 1813.99 150.684 1813.67 150.006C1813.35 149.328 1813.19 148.553 1813.19 147.682C1813.19 146.795 1813.36 146.013 1813.68 145.335C1814.01 144.653 1814.47 144.121 1815.06 143.739C1815.65 143.352 1816.34 143.159 1817.12 143.159C1817.74 143.159 1818.29 143.273 1818.78 143.5C1819.28 143.727 1819.68 144.045 1819.99 144.455C1820.31 144.864 1820.5 145.341 1820.58 145.886H1819.24C1819.14 145.489 1818.91 145.136 1818.56 144.83C1818.21 144.519 1817.74 144.364 1817.15 144.364C1816.63 144.364 1816.17 144.5 1815.77 144.773C1815.38 145.042 1815.08 145.422 1814.86 145.915C1814.64 146.403 1814.53 146.977 1814.53 147.636C1814.53 148.311 1814.64 148.898 1814.85 149.398C1815.07 149.898 1815.37 150.286 1815.76 150.562C1816.16 150.839 1816.62 150.977 1817.15 150.977C1817.5 150.977 1817.81 150.917 1818.1 150.795C1818.38 150.674 1818.62 150.5 1818.82 150.273C1819.02 150.045 1819.16 149.773 1819.24 149.455H1820.58C1820.5 149.97 1820.32 150.434 1820.02 150.847C1819.72 151.256 1819.33 151.581 1818.84 151.824C1818.36 152.062 1817.79 152.182 1817.15 152.182ZM1826.34 143.273V144.409H1821.81V143.273H1826.34ZM1823.13 141.182H1824.47V149.5C1824.47 149.879 1824.53 150.163 1824.64 150.352C1824.75 150.538 1824.89 150.663 1825.07 150.727C1825.25 150.788 1825.43 150.818 1825.63 150.818C1825.78 150.818 1825.9 150.811 1825.99 150.795C1826.09 150.777 1826.16 150.761 1826.22 150.75L1826.49 151.955C1826.4 151.989 1826.28 152.023 1826.11 152.057C1825.95 152.095 1825.74 152.114 1825.49 152.114C1825.12 152.114 1824.74 152.032 1824.38 151.869C1824.02 151.706 1823.72 151.458 1823.48 151.125C1823.25 150.792 1823.13 150.371 1823.13 149.864V141.182ZM1768.41 166V154.364H1772.48C1773.29 154.364 1773.96 154.504 1774.48 154.784C1775.01 155.061 1775.4 155.434 1775.66 155.903C1775.92 156.369 1776.05 156.886 1776.05 157.455C1776.05 157.955 1775.96 158.367 1775.78 158.693C1775.6 159.019 1775.37 159.277 1775.09 159.466C1774.8 159.655 1774.49 159.795 1774.16 159.886V160C1774.52 160.023 1774.87 160.148 1775.23 160.375C1775.59 160.602 1775.89 160.928 1776.14 161.352C1776.38 161.777 1776.5 162.295 1776.5 162.909C1776.5 163.492 1776.37 164.017 1776.1 164.483C1775.84 164.949 1775.42 165.318 1774.85 165.591C1774.27 165.864 1773.53 166 1772.61 166H1768.41ZM1769.82 164.75H1772.61C1773.53 164.75 1774.19 164.572 1774.57 164.216C1774.96 163.856 1775.16 163.42 1775.16 162.909C1775.16 162.515 1775.06 162.152 1774.86 161.818C1774.66 161.481 1774.37 161.212 1774 161.011C1773.63 160.807 1773.19 160.705 1772.68 160.705H1769.82V164.75ZM1769.82 159.477H1772.43C1772.86 159.477 1773.24 159.394 1773.58 159.227C1773.92 159.061 1774.2 158.826 1774.4 158.523C1774.6 158.22 1774.7 157.864 1774.7 157.455C1774.7 156.943 1774.53 156.509 1774.17 156.153C1773.81 155.794 1773.25 155.614 1772.48 155.614H1769.82V159.477ZM1784.13 162.432V157.273H1785.47V166H1784.13V164.523H1784.04C1783.84 164.966 1783.52 165.343 1783.09 165.653C1782.66 165.96 1782.11 166.114 1781.45 166.114C1780.91 166.114 1780.42 165.994 1780 165.756C1779.57 165.513 1779.24 165.15 1779 164.665C1778.75 164.176 1778.63 163.561 1778.63 162.818V157.273H1779.97V162.727C1779.97 163.364 1780.15 163.871 1780.51 164.25C1780.87 164.629 1781.33 164.818 1781.88 164.818C1782.22 164.818 1782.56 164.733 1782.9 164.562C1783.25 164.392 1783.54 164.131 1783.78 163.778C1784.01 163.426 1784.13 162.977 1784.13 162.432ZM1791.73 157.273V158.409H1787.2V157.273H1791.73ZM1788.52 155.182H1789.86V163.5C1789.86 163.879 1789.92 164.163 1790.03 164.352C1790.14 164.538 1790.28 164.663 1790.46 164.727C1790.64 164.788 1790.82 164.818 1791.02 164.818C1791.17 164.818 1791.29 164.811 1791.38 164.795C1791.48 164.777 1791.56 164.761 1791.61 164.75L1791.88 165.955C1791.79 165.989 1791.67 166.023 1791.5 166.057C1791.34 166.095 1791.13 166.114 1790.88 166.114C1790.51 166.114 1790.13 166.032 1789.77 165.869C1789.41 165.706 1789.11 165.458 1788.87 165.125C1788.64 164.792 1788.52 164.371 1788.52 163.864V155.182ZM1797.54 157.273V158.409H1793.02V157.273H1797.54ZM1794.33 155.182H1795.67V163.5C1795.67 163.879 1795.73 164.163 1795.84 164.352C1795.95 164.538 1796.1 164.663 1796.27 164.727C1796.45 164.788 1796.64 164.818 1796.83 164.818C1796.98 164.818 1797.1 164.811 1797.2 164.795C1797.29 164.777 1797.37 164.761 1797.42 164.75L1797.7 165.955C1797.61 165.989 1797.48 166.023 1797.32 166.057C1797.15 166.095 1796.95 166.114 1796.7 166.114C1796.32 166.114 1795.95 166.032 1795.58 165.869C1795.22 165.706 1794.92 165.458 1794.69 165.125C1794.45 164.792 1794.33 164.371 1794.33 163.864V155.182ZM1803.01 166.182C1802.22 166.182 1801.53 165.994 1800.93 165.619C1800.34 165.244 1799.88 164.72 1799.55 164.045C1799.22 163.371 1799.05 162.583 1799.05 161.682C1799.05 160.773 1799.22 159.979 1799.55 159.301C1799.88 158.623 1800.34 158.097 1800.93 157.722C1801.53 157.347 1802.22 157.159 1803.01 157.159C1803.79 157.159 1804.48 157.347 1805.08 157.722C1805.67 158.097 1806.13 158.623 1806.46 159.301C1806.79 159.979 1806.96 160.773 1806.96 161.682C1806.96 162.583 1806.79 163.371 1806.46 164.045C1806.13 164.72 1805.67 165.244 1805.08 165.619C1804.48 165.994 1803.79 166.182 1803.01 166.182ZM1803.01 164.977C1803.61 164.977 1804.1 164.824 1804.48 164.517C1804.87 164.21 1805.16 163.807 1805.34 163.307C1805.53 162.807 1805.62 162.265 1805.62 161.682C1805.62 161.098 1805.53 160.555 1805.34 160.051C1805.16 159.547 1804.87 159.14 1804.48 158.83C1804.1 158.519 1803.61 158.364 1803.01 158.364C1802.41 158.364 1801.92 158.519 1801.53 158.83C1801.14 159.14 1800.86 159.547 1800.67 160.051C1800.49 160.555 1800.39 161.098 1800.39 161.682C1800.39 162.265 1800.49 162.807 1800.67 163.307C1800.86 163.807 1801.14 164.21 1801.53 164.517C1801.92 164.824 1802.41 164.977 1803.01 164.977ZM1810.35 160.75V166H1809.01V157.273H1810.3V158.636H1810.42C1810.62 158.193 1810.93 157.837 1811.35 157.568C1811.77 157.295 1812.3 157.159 1812.96 157.159C1813.55 157.159 1814.07 157.28 1814.51 157.523C1814.96 157.761 1815.3 158.125 1815.55 158.614C1815.79 159.098 1815.92 159.712 1815.92 160.455V166H1814.58V160.545C1814.58 159.86 1814.4 159.326 1814.04 158.943C1813.69 158.557 1813.2 158.364 1812.58 158.364C1812.15 158.364 1811.77 158.456 1811.43 158.642C1811.1 158.828 1810.83 159.098 1810.64 159.455C1810.45 159.811 1810.35 160.242 1810.35 160.75ZM1824.55 159.227L1823.35 159.568C1823.27 159.367 1823.16 159.172 1823.01 158.983C1822.87 158.79 1822.67 158.631 1822.42 158.506C1822.17 158.381 1821.85 158.318 1821.46 158.318C1820.92 158.318 1820.48 158.441 1820.12 158.688C1819.77 158.93 1819.6 159.239 1819.6 159.614C1819.6 159.947 1819.72 160.21 1819.96 160.403C1820.2 160.597 1820.58 160.758 1821.1 160.886L1822.39 161.205C1823.17 161.394 1823.75 161.684 1824.13 162.074C1824.52 162.46 1824.71 162.958 1824.71 163.568C1824.71 164.068 1824.56 164.515 1824.28 164.909C1823.99 165.303 1823.6 165.614 1823.08 165.841C1822.57 166.068 1821.98 166.182 1821.3 166.182C1820.41 166.182 1819.67 165.989 1819.09 165.602C1818.51 165.216 1818.14 164.652 1817.98 163.909L1819.25 163.591C1819.38 164.061 1819.6 164.413 1819.94 164.648C1820.28 164.883 1820.73 165 1821.28 165C1821.9 165 1822.4 164.867 1822.77 164.602C1823.14 164.333 1823.32 164.011 1823.32 163.636C1823.32 163.333 1823.22 163.08 1823 162.875C1822.79 162.667 1822.47 162.511 1822.03 162.409L1820.57 162.068C1819.77 161.879 1819.19 161.585 1818.81 161.188C1818.44 160.786 1818.25 160.284 1818.25 159.682C1818.25 159.189 1818.39 158.754 1818.67 158.375C1818.95 157.996 1819.33 157.699 1819.81 157.483C1820.3 157.267 1820.85 157.159 1821.46 157.159C1822.32 157.159 1823 157.348 1823.49 157.727C1823.99 158.106 1824.34 158.606 1824.55 159.227Z" fill="black"/>
<path d="M1780 553H1776.41V541.364H1780.16C1781.29 541.364 1782.25 541.597 1783.06 542.062C1783.86 542.525 1784.48 543.189 1784.9 544.057C1785.33 544.92 1785.55 545.955 1785.55 547.159C1785.55 548.371 1785.33 549.415 1784.9 550.29C1784.47 551.161 1783.84 551.831 1783.01 552.301C1782.19 552.767 1781.18 553 1780 553ZM1777.82 551.75H1779.91C1780.87 551.75 1781.67 551.564 1782.3 551.193C1782.93 550.822 1783.41 550.294 1783.72 549.608C1784.03 548.922 1784.18 548.106 1784.18 547.159C1784.18 546.22 1784.03 545.411 1783.72 544.733C1783.41 544.051 1782.96 543.528 1782.35 543.165C1781.74 542.797 1780.98 542.614 1780.07 542.614H1777.82V551.75ZM1791.39 553.182C1790.55 553.182 1789.82 552.996 1789.21 552.625C1788.6 552.25 1788.14 551.727 1787.81 551.057C1787.48 550.383 1787.32 549.598 1787.32 548.705C1787.32 547.811 1787.48 547.023 1787.81 546.341C1788.14 545.655 1788.59 545.121 1789.18 544.739C1789.77 544.352 1790.46 544.159 1791.25 544.159C1791.7 544.159 1792.15 544.235 1792.6 544.386C1793.04 544.538 1793.44 544.784 1793.81 545.125C1794.17 545.462 1794.46 545.909 1794.68 546.466C1794.89 547.023 1795 547.708 1795 548.523V549.091H1788.27V547.932H1793.64C1793.64 547.439 1793.54 547 1793.34 546.614C1793.15 546.227 1792.87 545.922 1792.51 545.699C1792.16 545.475 1791.73 545.364 1791.25 545.364C1790.72 545.364 1790.25 545.496 1789.86 545.761C1789.48 546.023 1789.18 546.364 1788.97 546.784C1788.76 547.205 1788.66 547.655 1788.66 548.136V548.909C1788.66 549.568 1788.77 550.127 1789 550.585C1789.23 551.04 1789.55 551.386 1789.96 551.625C1790.37 551.86 1790.84 551.977 1791.39 551.977C1791.74 551.977 1792.06 551.928 1792.34 551.83C1792.63 551.727 1792.88 551.576 1793.09 551.375C1793.29 551.17 1793.45 550.917 1793.57 550.614L1794.86 550.977C1794.73 551.417 1794.5 551.803 1794.18 552.136C1793.85 552.466 1793.46 552.723 1792.98 552.909C1792.51 553.091 1791.98 553.182 1791.39 553.182ZM1798.38 541.364V553H1797.04V541.364H1798.38ZM1804.5 553.182C1803.65 553.182 1802.93 552.996 1802.32 552.625C1801.71 552.25 1801.25 551.727 1800.92 551.057C1800.59 550.383 1800.43 549.598 1800.43 548.705C1800.43 547.811 1800.59 547.023 1800.92 546.341C1801.25 545.655 1801.7 545.121 1802.29 544.739C1802.88 544.352 1803.57 544.159 1804.36 544.159C1804.81 544.159 1805.26 544.235 1805.71 544.386C1806.15 544.538 1806.55 544.784 1806.92 545.125C1807.28 545.462 1807.57 545.909 1807.79 546.466C1808 547.023 1808.11 547.708 1808.11 548.523V549.091H1801.38V547.932H1806.75C1806.75 547.439 1806.65 547 1806.45 546.614C1806.26 546.227 1805.98 545.922 1805.62 545.699C1805.26 545.475 1804.84 545.364 1804.36 545.364C1803.83 545.364 1803.36 545.496 1802.97 545.761C1802.59 546.023 1802.29 546.364 1802.08 546.784C1801.87 547.205 1801.77 547.655 1801.77 548.136V548.909C1801.77 549.568 1801.88 550.127 1802.11 550.585C1802.34 551.04 1802.66 551.386 1803.07 551.625C1803.48 551.86 1803.95 551.977 1804.5 551.977C1804.85 551.977 1805.17 551.928 1805.45 551.83C1805.74 551.727 1805.99 551.576 1806.19 551.375C1806.4 551.17 1806.56 550.917 1806.68 550.614L1807.97 550.977C1807.84 551.417 1807.61 551.803 1807.29 552.136C1806.96 552.466 1806.57 552.723 1806.09 552.909C1805.62 553.091 1805.09 553.182 1804.5 553.182ZM1813.94 544.273V545.409H1809.42V544.273H1813.94ZM1810.74 542.182H1812.08V550.5C1812.08 550.879 1812.14 551.163 1812.25 551.352C1812.36 551.538 1812.5 551.663 1812.68 551.727C1812.86 551.788 1813.04 551.818 1813.24 551.818C1813.39 551.818 1813.51 551.811 1813.6 551.795C1813.7 551.777 1813.77 551.761 1813.83 551.75L1814.1 552.955C1814.01 552.989 1813.89 553.023 1813.72 553.057C1813.56 553.095 1813.35 553.114 1813.1 553.114C1812.72 553.114 1812.35 553.032 1811.99 552.869C1811.63 552.706 1811.33 552.458 1811.09 552.125C1810.86 551.792 1810.74 551.371 1810.74 550.864V542.182ZM1819.53 553.182C1818.69 553.182 1817.96 552.996 1817.35 552.625C1816.74 552.25 1816.28 551.727 1815.95 551.057C1815.62 550.383 1815.46 549.598 1815.46 548.705C1815.46 547.811 1815.62 547.023 1815.95 546.341C1816.28 545.655 1816.74 545.121 1817.32 544.739C1817.91 544.352 1818.6 544.159 1819.39 544.159C1819.85 544.159 1820.29 544.235 1820.74 544.386C1821.18 544.538 1821.58 544.784 1821.95 545.125C1822.31 545.462 1822.6 545.909 1822.82 546.466C1823.03 547.023 1823.14 547.708 1823.14 548.523V549.091H1816.41V547.932H1821.78C1821.78 547.439 1821.68 547 1821.48 546.614C1821.29 546.227 1821.01 545.922 1820.65 545.699C1820.3 545.475 1819.88 545.364 1819.39 545.364C1818.86 545.364 1818.39 545.496 1818 545.761C1817.62 546.023 1817.32 546.364 1817.11 546.784C1816.9 547.205 1816.8 547.655 1816.8 548.136V548.909C1816.8 549.568 1816.91 550.127 1817.14 550.585C1817.37 551.04 1817.69 551.386 1818.1 551.625C1818.51 551.86 1818.99 551.977 1819.53 551.977C1819.88 551.977 1820.2 551.928 1820.48 551.83C1820.77 551.727 1821.02 551.576 1821.23 551.375C1821.43 551.17 1821.6 550.917 1821.71 550.614L1823 550.977C1822.87 551.417 1822.64 551.803 1822.32 552.136C1821.99 552.466 1821.6 552.723 1821.12 552.909C1820.65 553.091 1820.12 553.182 1819.53 553.182Z" fill="black"/>
<path d="M1801.41 1033V1021.36H1808.43V1022.61H1802.82V1026.55H1808.07V1027.8H1802.82V1031.75H1808.52V1033H1801.41ZM1811.79 1024.27L1813.88 1027.84L1815.97 1024.27H1817.52L1814.7 1028.64L1817.52 1033H1815.97L1813.88 1029.61L1811.79 1033H1810.24L1813.02 1028.64L1810.24 1024.27H1811.79ZM1819.43 1033V1024.27H1820.77V1033H1819.43ZM1820.11 1022.82C1819.85 1022.82 1819.63 1022.73 1819.44 1022.55C1819.25 1022.37 1819.16 1022.16 1819.16 1021.91C1819.16 1021.66 1819.25 1021.45 1819.44 1021.27C1819.63 1021.09 1819.85 1021 1820.11 1021C1820.37 1021 1820.6 1021.09 1820.78 1021.27C1820.97 1021.45 1821.07 1021.66 1821.07 1021.91C1821.07 1022.16 1820.97 1022.37 1820.78 1022.55C1820.6 1022.73 1820.37 1022.82 1820.11 1022.82ZM1827.02 1024.27V1025.41H1822.5V1024.27H1827.02ZM1823.82 1022.18H1825.16V1030.5C1825.16 1030.88 1825.21 1031.16 1825.32 1031.35C1825.44 1031.54 1825.58 1031.66 1825.76 1031.73C1825.93 1031.79 1826.12 1031.82 1826.32 1031.82C1826.47 1031.82 1826.59 1031.81 1826.68 1031.8C1826.78 1031.78 1826.85 1031.76 1826.91 1031.75L1827.18 1032.95C1827.09 1032.99 1826.96 1033.02 1826.8 1033.06C1826.64 1033.09 1826.43 1033.11 1826.18 1033.11C1825.8 1033.11 1825.43 1033.03 1825.07 1032.87C1824.71 1032.71 1824.41 1032.46 1824.17 1032.12C1823.94 1031.79 1823.82 1031.37 1823.82 1030.86V1022.18Z" fill="black"/>
<rect x="810" y="38" width="929" height="542" fill="#D9D9D9"/>
<rect x="810" y="594" width="929" height="440" fill="#D9D9D9"/>
<path d="M424.159 545H422.045C421.92 544.392 421.702 543.858 421.389 543.398C421.082 542.938 420.707 542.551 420.264 542.239C419.827 541.92 419.341 541.682 418.807 541.523C418.273 541.364 417.716 541.284 417.136 541.284C416.08 541.284 415.122 541.551 414.264 542.085C413.412 542.619 412.733 543.406 412.227 544.446C411.727 545.486 411.477 546.761 411.477 548.273C411.477 549.784 411.727 551.06 412.227 552.099C412.733 553.139 413.412 553.926 414.264 554.46C415.122 554.994 416.08 555.261 417.136 555.261C417.716 555.261 418.273 555.182 418.807 555.023C419.341 554.864 419.827 554.628 420.264 554.315C420.707 553.997 421.082 553.608 421.389 553.148C421.702 552.682 421.92 552.148 422.045 551.545H424.159C424 552.437 423.71 553.236 423.29 553.94C422.869 554.645 422.347 555.244 421.722 555.739C421.097 556.227 420.395 556.599 419.616 556.855C418.844 557.111 418.017 557.239 417.136 557.239C415.648 557.239 414.324 556.875 413.165 556.148C412.006 555.42 411.094 554.386 410.429 553.045C409.764 551.705 409.432 550.114 409.432 548.273C409.432 546.432 409.764 544.841 410.429 543.5C411.094 542.159 412.006 541.125 413.165 540.398C414.324 539.67 415.648 539.307 417.136 539.307C418.017 539.307 418.844 539.435 419.616 539.69C420.395 539.946 421.097 540.321 421.722 540.815C422.347 541.304 422.869 541.901 423.29 542.605C423.71 543.304 424 544.102 424.159 545ZM432.62 557.273C431.438 557.273 430.401 556.991 429.509 556.429C428.623 555.866 427.93 555.08 427.43 554.068C426.935 553.057 426.688 551.875 426.688 550.523C426.688 549.159 426.935 547.969 427.43 546.952C427.93 545.935 428.623 545.145 429.509 544.582C430.401 544.02 431.438 543.739 432.62 543.739C433.802 543.739 434.836 544.02 435.722 544.582C436.614 545.145 437.308 545.935 437.802 546.952C438.302 547.969 438.552 549.159 438.552 550.523C438.552 551.875 438.302 553.057 437.802 554.068C437.308 555.08 436.614 555.866 435.722 556.429C434.836 556.991 433.802 557.273 432.62 557.273ZM432.62 555.466C433.518 555.466 434.256 555.236 434.836 554.776C435.415 554.315 435.844 553.71 436.123 552.96C436.401 552.21 436.54 551.398 436.54 550.523C436.54 549.648 436.401 548.832 436.123 548.077C435.844 547.321 435.415 546.71 434.836 546.244C434.256 545.778 433.518 545.545 432.62 545.545C431.722 545.545 430.984 545.778 430.404 546.244C429.825 546.71 429.396 547.321 429.117 548.077C428.839 548.832 428.7 549.648 428.7 550.523C428.7 551.398 428.839 552.21 429.117 552.96C429.396 553.71 429.825 554.315 430.404 554.776C430.984 555.236 431.722 555.466 432.62 555.466ZM443.634 549.125V557H441.622V543.909H443.565V545.955H443.736C444.043 545.29 444.509 544.756 445.134 544.352C445.759 543.943 446.565 543.739 447.554 543.739C448.44 543.739 449.216 543.92 449.881 544.284C450.545 544.642 451.063 545.188 451.432 545.92C451.801 546.648 451.986 547.568 451.986 548.682V557H449.974V548.818C449.974 547.79 449.707 546.989 449.173 546.415C448.639 545.835 447.906 545.545 446.974 545.545C446.332 545.545 445.759 545.685 445.253 545.963C444.753 546.241 444.358 546.648 444.068 547.182C443.778 547.716 443.634 548.364 443.634 549.125ZM461.354 543.909V545.614H454.57V543.909H461.354ZM456.548 540.773H458.559V553.25C458.559 553.818 458.641 554.244 458.806 554.528C458.977 554.807 459.192 554.994 459.454 555.091C459.721 555.182 460.002 555.227 460.298 555.227C460.519 555.227 460.701 555.216 460.843 555.193C460.985 555.165 461.099 555.142 461.184 555.125L461.593 556.932C461.457 556.983 461.266 557.034 461.022 557.085C460.778 557.142 460.468 557.17 460.093 557.17C459.525 557.17 458.968 557.048 458.423 556.804C457.883 556.56 457.434 556.188 457.076 555.688C456.724 555.188 456.548 554.557 456.548 553.795V540.773ZM468.232 557.307C467.403 557.307 466.65 557.151 465.974 556.838C465.298 556.52 464.761 556.062 464.363 555.466C463.965 554.864 463.766 554.136 463.766 553.284C463.766 552.534 463.914 551.926 464.21 551.46C464.505 550.989 464.9 550.619 465.394 550.352C465.888 550.085 466.434 549.886 467.031 549.756C467.633 549.619 468.238 549.511 468.846 549.432C469.641 549.33 470.286 549.253 470.781 549.202C471.281 549.145 471.644 549.051 471.871 548.92C472.104 548.79 472.221 548.562 472.221 548.239V548.17C472.221 547.33 471.991 546.676 471.531 546.21C471.076 545.744 470.386 545.511 469.46 545.511C468.499 545.511 467.746 545.722 467.201 546.142C466.656 546.562 466.272 547.011 466.05 547.489L464.141 546.807C464.482 546.011 464.937 545.392 465.505 544.949C466.079 544.5 466.704 544.187 467.38 544.011C468.062 543.83 468.732 543.739 469.391 543.739C469.812 543.739 470.295 543.79 470.84 543.892C471.391 543.989 471.923 544.19 472.434 544.497C472.951 544.804 473.38 545.267 473.721 545.886C474.062 546.506 474.232 547.335 474.232 548.375V557H472.221V555.227H472.119C471.982 555.511 471.755 555.815 471.437 556.139C471.119 556.463 470.695 556.739 470.167 556.966C469.638 557.193 468.994 557.307 468.232 557.307ZM468.539 555.5C469.335 555.5 470.005 555.344 470.55 555.031C471.102 554.719 471.516 554.315 471.795 553.821C472.079 553.327 472.221 552.807 472.221 552.261V550.42C472.136 550.523 471.948 550.616 471.658 550.702C471.374 550.781 471.045 550.852 470.67 550.915C470.3 550.972 469.94 551.023 469.587 551.068C469.241 551.108 468.96 551.142 468.744 551.17C468.221 551.239 467.732 551.349 467.278 551.503C466.829 551.651 466.465 551.875 466.187 552.176C465.914 552.472 465.778 552.875 465.778 553.386C465.778 554.085 466.036 554.614 466.553 554.972C467.076 555.324 467.738 555.5 468.539 555.5ZM483.222 557.273C481.994 557.273 480.938 556.983 480.051 556.403C479.165 555.824 478.483 555.026 478.006 554.009C477.528 552.991 477.29 551.83 477.29 550.523C477.29 549.193 477.534 548.02 478.023 547.003C478.517 545.98 479.205 545.182 480.085 544.608C480.972 544.028 482.006 543.739 483.188 543.739C484.108 543.739 484.938 543.909 485.676 544.25C486.415 544.591 487.02 545.068 487.491 545.682C487.963 546.295 488.256 547.011 488.369 547.83H486.358C486.205 547.233 485.864 546.705 485.335 546.244C484.813 545.778 484.108 545.545 483.222 545.545C482.438 545.545 481.75 545.75 481.159 546.159C480.574 546.562 480.116 547.134 479.787 547.872C479.463 548.605 479.301 549.466 479.301 550.455C479.301 551.466 479.46 552.347 479.778 553.097C480.102 553.847 480.557 554.429 481.142 554.844C481.733 555.259 482.426 555.466 483.222 555.466C483.744 555.466 484.219 555.375 484.645 555.193C485.071 555.011 485.432 554.75 485.727 554.409C486.023 554.068 486.233 553.659 486.358 553.182H488.369C488.256 553.955 487.974 554.651 487.526 555.27C487.082 555.884 486.494 556.372 485.761 556.736C485.034 557.094 484.188 557.273 483.222 557.273ZM497.003 543.909V545.614H490.219V543.909H497.003ZM492.196 540.773H494.207V553.25C494.207 553.818 494.29 554.244 494.455 554.528C494.625 554.807 494.841 554.994 495.102 555.091C495.369 555.182 495.651 555.227 495.946 555.227C496.168 555.227 496.349 555.216 496.491 555.193C496.634 555.165 496.747 555.142 496.832 555.125L497.241 556.932C497.105 556.983 496.915 557.034 496.67 557.085C496.426 557.142 496.116 557.17 495.741 557.17C495.173 557.17 494.616 557.048 494.071 556.804C493.531 556.56 493.082 556.188 492.724 555.688C492.372 555.188 492.196 554.557 492.196 553.795V540.773ZM410.114 589V571.545H412.227V587.125H420.341V589H410.114ZM423.341 589V575.909H425.352V589H423.341ZM424.364 573.727C423.972 573.727 423.634 573.594 423.349 573.327C423.071 573.06 422.932 572.739 422.932 572.364C422.932 571.989 423.071 571.668 423.349 571.401C423.634 571.134 423.972 571 424.364 571C424.756 571 425.091 571.134 425.369 571.401C425.653 571.668 425.795 571.989 425.795 572.364C425.795 572.739 425.653 573.06 425.369 573.327C425.091 573.594 424.756 573.727 424.364 573.727ZM438.309 578.841L436.502 579.352C436.388 579.051 436.221 578.759 435.999 578.474C435.783 578.185 435.488 577.946 435.113 577.759C434.738 577.571 434.258 577.477 433.673 577.477C432.871 577.477 432.204 577.662 431.67 578.031C431.141 578.395 430.877 578.858 430.877 579.42C430.877 579.92 431.059 580.315 431.423 580.605C431.786 580.895 432.354 581.136 433.127 581.33L435.07 581.807C436.241 582.091 437.113 582.526 437.687 583.111C438.261 583.69 438.548 584.437 438.548 585.352C438.548 586.102 438.332 586.773 437.9 587.364C437.474 587.955 436.877 588.42 436.11 588.761C435.343 589.102 434.451 589.273 433.434 589.273C432.099 589.273 430.994 588.983 430.119 588.403C429.244 587.824 428.69 586.977 428.457 585.864L430.366 585.386C430.548 586.091 430.891 586.619 431.397 586.972C431.908 587.324 432.576 587.5 433.4 587.5C434.337 587.5 435.082 587.301 435.633 586.903C436.19 586.5 436.468 586.017 436.468 585.455C436.468 585 436.309 584.619 435.991 584.312C435.673 584 435.184 583.767 434.525 583.614L432.343 583.102C431.144 582.818 430.263 582.378 429.701 581.781C429.144 581.179 428.866 580.426 428.866 579.523C428.866 578.784 429.073 578.131 429.488 577.562C429.908 576.994 430.479 576.548 431.201 576.224C431.928 575.901 432.752 575.739 433.673 575.739C434.968 575.739 435.985 576.023 436.724 576.591C437.468 577.159 437.996 577.909 438.309 578.841ZM447.268 575.909V577.614H440.484V575.909H447.268ZM442.462 572.773H444.473V585.25C444.473 585.818 444.555 586.244 444.72 586.528C444.891 586.807 445.107 586.994 445.368 587.091C445.635 587.182 445.916 587.227 446.212 587.227C446.433 587.227 446.615 587.216 446.757 587.193C446.899 587.165 447.013 587.142 447.098 587.125L447.507 588.932C447.371 588.983 447.18 589.034 446.936 589.085C446.692 589.142 446.382 589.17 446.007 589.17C445.439 589.17 444.882 589.048 444.337 588.804C443.797 588.56 443.348 588.188 442.99 587.688C442.638 587.188 442.462 586.557 442.462 585.795V572.773ZM458.033 571.545L463.214 586.239H463.419L468.601 571.545H470.817L464.408 589H462.226L455.817 571.545H458.033ZM473.263 589V575.909H475.274V589H473.263ZM474.286 573.727C473.893 573.727 473.555 573.594 473.271 573.327C472.993 573.06 472.854 572.739 472.854 572.364C472.854 571.989 472.993 571.668 473.271 571.401C473.555 571.134 473.893 571 474.286 571C474.678 571 475.013 571.134 475.291 571.401C475.575 571.668 475.717 571.989 475.717 572.364C475.717 572.739 475.575 573.06 475.291 573.327C475.013 573.594 474.678 573.727 474.286 573.727ZM484.447 589.273C483.185 589.273 482.097 588.994 481.183 588.438C480.273 587.875 479.572 587.091 479.077 586.085C478.589 585.074 478.344 583.898 478.344 582.557C478.344 581.216 478.589 580.034 479.077 579.011C479.572 577.983 480.259 577.182 481.14 576.608C482.026 576.028 483.06 575.739 484.242 575.739C484.924 575.739 485.597 575.852 486.262 576.08C486.927 576.307 487.532 576.676 488.077 577.188C488.623 577.693 489.058 578.364 489.381 579.199C489.705 580.034 489.867 581.062 489.867 582.284V583.136H479.776V581.398H487.822C487.822 580.659 487.674 580 487.379 579.42C487.089 578.841 486.674 578.384 486.134 578.048C485.6 577.713 484.969 577.545 484.242 577.545C483.441 577.545 482.748 577.744 482.163 578.142C481.583 578.534 481.137 579.045 480.825 579.676C480.512 580.307 480.356 580.983 480.356 581.705V582.864C480.356 583.852 480.526 584.69 480.867 585.378C481.214 586.06 481.694 586.58 482.308 586.938C482.921 587.29 483.634 587.466 484.447 587.466C484.975 587.466 485.452 587.392 485.879 587.244C486.31 587.091 486.683 586.864 486.995 586.562C487.308 586.256 487.549 585.875 487.719 585.42L489.663 585.966C489.458 586.625 489.114 587.205 488.631 587.705C488.148 588.199 487.552 588.585 486.842 588.864C486.131 589.136 485.333 589.273 484.447 589.273ZM495.893 589L491.904 575.909H494.018L496.847 585.932H496.984L499.779 575.909H501.927L504.688 585.898H504.825L507.654 575.909H509.768L505.779 589H503.802L500.938 578.943H500.734L497.87 589H495.893Z" fill="black"/>
<path d="M1173.11 284.545H1175.64L1181.57 299.034H1181.77L1187.7 284.545H1190.23V302H1188.25V288.739H1188.08L1182.62 302H1180.72L1175.26 288.739H1175.09V302H1173.11V284.545ZM1198.04 302.307C1197.22 302.307 1196.46 302.151 1195.79 301.838C1195.11 301.52 1194.57 301.062 1194.18 300.466C1193.78 299.864 1193.58 299.136 1193.58 298.284C1193.58 297.534 1193.73 296.926 1194.02 296.46C1194.32 295.989 1194.71 295.619 1195.21 295.352C1195.7 295.085 1196.25 294.886 1196.84 294.756C1197.45 294.619 1198.05 294.511 1198.66 294.432C1199.45 294.33 1200.1 294.253 1200.59 294.202C1201.09 294.145 1201.46 294.051 1201.68 293.92C1201.92 293.79 1202.03 293.562 1202.03 293.239V293.17C1202.03 292.33 1201.8 291.676 1201.34 291.21C1200.89 290.744 1200.2 290.511 1199.27 290.511C1198.31 290.511 1197.56 290.722 1197.01 291.142C1196.47 291.562 1196.08 292.011 1195.86 292.489L1193.95 291.807C1194.29 291.011 1194.75 290.392 1195.32 289.949C1195.89 289.5 1196.52 289.187 1197.19 289.011C1197.87 288.83 1198.54 288.739 1199.2 288.739C1199.62 288.739 1200.11 288.79 1200.65 288.892C1201.2 288.989 1201.74 289.19 1202.25 289.497C1202.76 289.804 1203.19 290.267 1203.53 290.886C1203.87 291.506 1204.04 292.335 1204.04 293.375V302H1202.03V300.227H1201.93C1201.79 300.511 1201.57 300.815 1201.25 301.139C1200.93 301.463 1200.51 301.739 1199.98 301.966C1199.45 302.193 1198.81 302.307 1198.04 302.307ZM1198.35 300.5C1199.15 300.5 1199.82 300.344 1200.36 300.031C1200.91 299.719 1201.33 299.315 1201.61 298.821C1201.89 298.327 1202.03 297.807 1202.03 297.261V295.42C1201.95 295.523 1201.76 295.616 1201.47 295.702C1201.19 295.781 1200.86 295.852 1200.48 295.915C1200.11 295.972 1199.75 296.023 1199.4 296.068C1199.05 296.108 1198.77 296.142 1198.56 296.17C1198.03 296.239 1197.54 296.349 1197.09 296.503C1196.64 296.651 1196.28 296.875 1196 297.176C1195.73 297.472 1195.59 297.875 1195.59 298.386C1195.59 299.085 1195.85 299.614 1196.37 299.972C1196.89 300.324 1197.55 300.5 1198.35 300.5ZM1209.73 294.125V302H1207.72V288.909H1209.66V290.955H1209.83C1210.14 290.29 1210.6 289.756 1211.23 289.352C1211.85 288.943 1212.66 288.739 1213.65 288.739C1214.53 288.739 1215.31 288.92 1215.97 289.284C1216.64 289.642 1217.16 290.188 1217.53 290.92C1217.89 291.648 1218.08 292.568 1218.08 293.682V302H1216.07V293.818C1216.07 292.79 1215.8 291.989 1215.27 291.415C1214.73 290.835 1214 290.545 1213.07 290.545C1212.43 290.545 1211.85 290.685 1211.35 290.963C1210.85 291.241 1210.45 291.648 1210.16 292.182C1209.87 292.716 1209.73 293.364 1209.73 294.125ZM1226.7 302.273C1225.61 302.273 1224.64 301.997 1223.81 301.446C1222.97 300.889 1222.32 300.105 1221.85 299.094C1221.38 298.077 1221.14 296.875 1221.14 295.489C1221.14 294.114 1221.38 292.92 1221.85 291.909C1222.32 290.898 1222.98 290.116 1223.82 289.565C1224.66 289.014 1225.63 288.739 1226.73 288.739C1227.58 288.739 1228.26 288.881 1228.75 289.165C1229.25 289.443 1229.63 289.761 1229.89 290.119C1230.16 290.472 1230.37 290.761 1230.52 290.989H1230.69V284.545H1232.7V302H1230.75V299.989H1230.52C1230.37 300.227 1230.16 300.528 1229.89 300.892C1229.61 301.25 1229.22 301.571 1228.72 301.855C1228.21 302.134 1227.54 302.273 1226.7 302.273ZM1226.97 300.466C1227.78 300.466 1228.46 300.256 1229.02 299.835C1229.57 299.409 1230 298.821 1230.29 298.071C1230.58 297.315 1230.72 296.443 1230.72 295.455C1230.72 294.477 1230.58 293.622 1230.29 292.889C1230.01 292.151 1229.59 291.577 1229.03 291.168C1228.48 290.753 1227.79 290.545 1226.97 290.545C1226.12 290.545 1225.41 290.764 1224.84 291.202C1224.28 291.634 1223.85 292.222 1223.57 292.966C1223.29 293.705 1223.15 294.534 1223.15 295.455C1223.15 296.386 1223.29 297.233 1223.58 297.994C1223.87 298.75 1224.29 299.352 1224.86 299.801C1225.43 300.244 1226.13 300.466 1226.97 300.466ZM1240.51 302.307C1239.68 302.307 1238.93 302.151 1238.25 301.838C1237.58 301.52 1237.04 301.062 1236.64 300.466C1236.25 299.864 1236.05 299.136 1236.05 298.284C1236.05 297.534 1236.2 296.926 1236.49 296.46C1236.79 295.989 1237.18 295.619 1237.68 295.352C1238.17 295.085 1238.72 294.886 1239.31 294.756C1239.91 294.619 1240.52 294.511 1241.13 294.432C1241.92 294.33 1242.57 294.253 1243.06 294.202C1243.56 294.145 1243.93 294.051 1244.15 293.92C1244.39 293.79 1244.5 293.562 1244.5 293.239V293.17C1244.5 292.33 1244.27 291.676 1243.81 291.21C1243.36 290.744 1242.67 290.511 1241.74 290.511C1240.78 290.511 1240.03 290.722 1239.48 291.142C1238.94 291.562 1238.55 292.011 1238.33 292.489L1236.42 291.807C1236.76 291.011 1237.22 290.392 1237.79 289.949C1238.36 289.5 1238.99 289.187 1239.66 289.011C1240.34 288.83 1241.01 288.739 1241.67 288.739C1242.09 288.739 1242.58 288.79 1243.12 288.892C1243.67 288.989 1244.2 289.19 1244.72 289.497C1245.23 289.804 1245.66 290.267 1246 290.886C1246.34 291.506 1246.51 292.335 1246.51 293.375V302H1244.5V300.227H1244.4C1244.26 300.511 1244.04 300.815 1243.72 301.139C1243.4 301.463 1242.98 301.739 1242.45 301.966C1241.92 302.193 1241.27 302.307 1240.51 302.307ZM1240.82 300.5C1241.62 300.5 1242.29 300.344 1242.83 300.031C1243.38 299.719 1243.8 299.315 1244.08 298.821C1244.36 298.327 1244.5 297.807 1244.5 297.261V295.42C1244.42 295.523 1244.23 295.616 1243.94 295.702C1243.66 295.781 1243.33 295.852 1242.95 295.915C1242.58 295.972 1242.22 296.023 1241.87 296.068C1241.52 296.108 1241.24 296.142 1241.02 296.17C1240.5 296.239 1240.01 296.349 1239.56 296.503C1239.11 296.651 1238.75 296.875 1238.47 297.176C1238.2 297.472 1238.06 297.875 1238.06 298.386C1238.06 299.085 1238.32 299.614 1238.83 299.972C1239.36 300.324 1240.02 300.5 1240.82 300.5ZM1255.88 288.909V290.614H1249.09V288.909H1255.88ZM1251.07 285.773H1253.08V298.25C1253.08 298.818 1253.16 299.244 1253.33 299.528C1253.5 299.807 1253.72 299.994 1253.98 300.091C1254.24 300.182 1254.53 300.227 1254.82 300.227C1255.04 300.227 1255.22 300.216 1255.37 300.193C1255.51 300.165 1255.62 300.142 1255.71 300.125L1256.12 301.932C1255.98 301.983 1255.79 302.034 1255.55 302.085C1255.3 302.142 1254.99 302.17 1254.62 302.17C1254.05 302.17 1253.49 302.048 1252.95 301.804C1252.41 301.56 1251.96 301.188 1251.6 300.688C1251.25 300.188 1251.07 299.557 1251.07 298.795V285.773ZM1264.08 302.273C1262.9 302.273 1261.86 301.991 1260.97 301.429C1260.08 300.866 1259.39 300.08 1258.89 299.068C1258.4 298.057 1258.15 296.875 1258.15 295.523C1258.15 294.159 1258.4 292.969 1258.89 291.952C1259.39 290.935 1260.08 290.145 1260.97 289.582C1261.86 289.02 1262.9 288.739 1264.08 288.739C1265.26 288.739 1266.3 289.02 1267.18 289.582C1268.08 290.145 1268.77 290.935 1269.26 291.952C1269.76 292.969 1270.01 294.159 1270.01 295.523C1270.01 296.875 1269.76 298.057 1269.26 299.068C1268.77 300.08 1268.08 300.866 1267.18 301.429C1266.3 301.991 1265.26 302.273 1264.08 302.273ZM1264.08 300.466C1264.98 300.466 1265.72 300.236 1266.3 299.776C1266.88 299.315 1267.31 298.71 1267.58 297.96C1267.86 297.21 1268 296.398 1268 295.523C1268 294.648 1267.86 293.832 1267.58 293.077C1267.31 292.321 1266.88 291.71 1266.3 291.244C1265.72 290.778 1264.98 290.545 1264.08 290.545C1263.18 290.545 1262.44 290.778 1261.87 291.244C1261.29 291.71 1260.86 292.321 1260.58 293.077C1260.3 293.832 1260.16 294.648 1260.16 295.523C1260.16 296.398 1260.3 297.21 1260.58 297.96C1260.86 298.71 1261.29 299.315 1261.87 299.776C1262.44 300.236 1263.18 300.466 1264.08 300.466ZM1273.08 302V288.909H1275.03V290.886H1275.16C1275.4 290.239 1275.83 289.713 1276.46 289.31C1277.08 288.906 1277.79 288.705 1278.57 288.705C1278.72 288.705 1278.9 288.707 1279.13 288.713C1279.35 288.719 1279.51 288.727 1279.63 288.739V290.784C1279.56 290.767 1279.4 290.741 1279.16 290.707C1278.92 290.668 1278.67 290.648 1278.4 290.648C1277.76 290.648 1277.2 290.781 1276.7 291.048C1276.2 291.31 1275.81 291.673 1275.52 292.139C1275.24 292.599 1275.09 293.125 1275.09 293.716V302H1273.08ZM1283.71 306.909C1283.37 306.909 1283.06 306.881 1282.79 306.824C1282.53 306.773 1282.34 306.722 1282.24 306.67L1282.75 304.898C1283.24 305.023 1283.67 305.068 1284.05 305.034C1284.42 305 1284.75 304.832 1285.04 304.531C1285.34 304.236 1285.61 303.756 1285.85 303.091L1286.23 302.068L1281.39 288.909H1283.57L1287.18 299.341H1287.32L1290.93 288.909H1293.12L1287.56 303.909C1287.31 304.585 1287 305.145 1286.63 305.588C1286.26 306.037 1285.83 306.369 1285.34 306.585C1284.86 306.801 1284.31 306.909 1283.71 306.909ZM1187.16 322H1185.05C1184.92 321.392 1184.7 320.858 1184.39 320.398C1184.08 319.938 1183.71 319.551 1183.26 319.239C1182.83 318.92 1182.34 318.682 1181.81 318.523C1181.27 318.364 1180.72 318.284 1180.14 318.284C1179.08 318.284 1178.12 318.551 1177.26 319.085C1176.41 319.619 1175.73 320.406 1175.23 321.446C1174.73 322.486 1174.48 323.761 1174.48 325.273C1174.48 326.784 1174.73 328.06 1175.23 329.099C1175.73 330.139 1176.41 330.926 1177.26 331.46C1178.12 331.994 1179.08 332.261 1180.14 332.261C1180.72 332.261 1181.27 332.182 1181.81 332.023C1182.34 331.864 1182.83 331.628 1183.26 331.315C1183.71 330.997 1184.08 330.608 1184.39 330.148C1184.7 329.682 1184.92 329.148 1185.05 328.545H1187.16C1187 329.437 1186.71 330.236 1186.29 330.94C1185.87 331.645 1185.35 332.244 1184.72 332.739C1184.1 333.227 1183.39 333.599 1182.62 333.855C1181.84 334.111 1181.02 334.239 1180.14 334.239C1178.65 334.239 1177.32 333.875 1176.16 333.148C1175.01 332.42 1174.09 331.386 1173.43 330.045C1172.76 328.705 1172.43 327.114 1172.43 325.273C1172.43 323.432 1172.76 321.841 1173.43 320.5C1174.09 319.159 1175.01 318.125 1176.16 317.398C1177.32 316.67 1178.65 316.307 1180.14 316.307C1181.02 316.307 1181.84 316.435 1182.62 316.69C1183.39 316.946 1184.1 317.321 1184.72 317.815C1185.35 318.304 1185.87 318.901 1186.29 319.605C1186.71 320.304 1187 321.102 1187.16 322ZM1195.62 334.273C1194.44 334.273 1193.4 333.991 1192.51 333.429C1191.62 332.866 1190.93 332.08 1190.43 331.068C1189.94 330.057 1189.69 328.875 1189.69 327.523C1189.69 326.159 1189.94 324.969 1190.43 323.952C1190.93 322.935 1191.62 322.145 1192.51 321.582C1193.4 321.02 1194.44 320.739 1195.62 320.739C1196.8 320.739 1197.84 321.02 1198.72 321.582C1199.61 322.145 1200.31 322.935 1200.8 323.952C1201.3 324.969 1201.55 326.159 1201.55 327.523C1201.55 328.875 1201.3 330.057 1200.8 331.068C1200.31 332.08 1199.61 332.866 1198.72 333.429C1197.84 333.991 1196.8 334.273 1195.62 334.273ZM1195.62 332.466C1196.52 332.466 1197.26 332.236 1197.84 331.776C1198.42 331.315 1198.84 330.71 1199.12 329.96C1199.4 329.21 1199.54 328.398 1199.54 327.523C1199.54 326.648 1199.4 325.832 1199.12 325.077C1198.84 324.321 1198.42 323.71 1197.84 323.244C1197.26 322.778 1196.52 322.545 1195.62 322.545C1194.72 322.545 1193.98 322.778 1193.4 323.244C1192.82 323.71 1192.4 324.321 1192.12 325.077C1191.84 325.832 1191.7 326.648 1191.7 327.523C1191.7 328.398 1191.84 329.21 1192.12 329.96C1192.4 330.71 1192.82 331.315 1193.4 331.776C1193.98 332.236 1194.72 332.466 1195.62 332.466ZM1206.63 326.125V334H1204.62V320.909H1206.57V322.955H1206.74C1207.04 322.29 1207.51 321.756 1208.13 321.352C1208.76 320.943 1209.57 320.739 1210.55 320.739C1211.44 320.739 1212.22 320.92 1212.88 321.284C1213.55 321.642 1214.06 322.188 1214.43 322.92C1214.8 323.648 1214.99 324.568 1214.99 325.682V334H1212.97V325.818C1212.97 324.79 1212.71 323.989 1212.17 323.415C1211.64 322.835 1210.91 322.545 1209.97 322.545C1209.33 322.545 1208.76 322.685 1208.25 322.963C1207.75 323.241 1207.36 323.648 1207.07 324.182C1206.78 324.716 1206.63 325.364 1206.63 326.125ZM1224.35 320.909V322.614H1217.57V320.909H1224.35ZM1219.55 317.773H1221.56V330.25C1221.56 330.818 1221.64 331.244 1221.81 331.528C1221.98 331.807 1222.19 331.994 1222.45 332.091C1222.72 332.182 1223 332.227 1223.3 332.227C1223.52 332.227 1223.7 332.216 1223.84 332.193C1223.99 332.165 1224.1 332.142 1224.18 332.125L1224.59 333.932C1224.46 333.983 1224.27 334.034 1224.02 334.085C1223.78 334.142 1223.47 334.17 1223.09 334.17C1222.52 334.17 1221.97 334.048 1221.42 333.804C1220.88 333.56 1220.43 333.188 1220.08 332.688C1219.72 332.188 1219.55 331.557 1219.55 330.795V317.773ZM1231.23 334.307C1230.4 334.307 1229.65 334.151 1228.97 333.838C1228.3 333.52 1227.76 333.062 1227.36 332.466C1226.97 331.864 1226.77 331.136 1226.77 330.284C1226.77 329.534 1226.91 328.926 1227.21 328.46C1227.5 327.989 1227.9 327.619 1228.39 327.352C1228.89 327.085 1229.43 326.886 1230.03 326.756C1230.63 326.619 1231.24 326.511 1231.85 326.432C1232.64 326.33 1233.29 326.253 1233.78 326.202C1234.28 326.145 1234.64 326.051 1234.87 325.92C1235.1 325.79 1235.22 325.562 1235.22 325.239V325.17C1235.22 324.33 1234.99 323.676 1234.53 323.21C1234.08 322.744 1233.39 322.511 1232.46 322.511C1231.5 322.511 1230.75 322.722 1230.2 323.142C1229.66 323.562 1229.27 324.011 1229.05 324.489L1227.14 323.807C1227.48 323.011 1227.94 322.392 1228.5 321.949C1229.08 321.5 1229.7 321.187 1230.38 321.011C1231.06 320.83 1231.73 320.739 1232.39 320.739C1232.81 320.739 1233.29 320.79 1233.84 320.892C1234.39 320.989 1234.92 321.19 1235.43 321.497C1235.95 321.804 1236.38 322.267 1236.72 322.886C1237.06 323.506 1237.23 324.335 1237.23 325.375V334H1235.22V332.227H1235.12C1234.98 332.511 1234.75 332.815 1234.44 333.139C1234.12 333.463 1233.7 333.739 1233.17 333.966C1232.64 334.193 1231.99 334.307 1231.23 334.307ZM1231.54 332.5C1232.33 332.5 1233 332.344 1233.55 332.031C1234.1 331.719 1234.52 331.315 1234.79 330.821C1235.08 330.327 1235.22 329.807 1235.22 329.261V327.42C1235.14 327.523 1234.95 327.616 1234.66 327.702C1234.37 327.781 1234.04 327.852 1233.67 327.915C1233.3 327.972 1232.94 328.023 1232.59 328.068C1232.24 328.108 1231.96 328.142 1231.74 328.17C1231.22 328.239 1230.73 328.349 1230.28 328.503C1229.83 328.651 1229.47 328.875 1229.19 329.176C1228.91 329.472 1228.78 329.875 1228.78 330.386C1228.78 331.085 1229.04 331.614 1229.55 331.972C1230.08 332.324 1230.74 332.5 1231.54 332.5ZM1246.22 334.273C1244.99 334.273 1243.94 333.983 1243.05 333.403C1242.16 332.824 1241.48 332.026 1241.01 331.009C1240.53 329.991 1240.29 328.83 1240.29 327.523C1240.29 326.193 1240.53 325.02 1241.02 324.003C1241.52 322.98 1242.2 322.182 1243.09 321.608C1243.97 321.028 1245.01 320.739 1246.19 320.739C1247.11 320.739 1247.94 320.909 1248.68 321.25C1249.41 321.591 1250.02 322.068 1250.49 322.682C1250.96 323.295 1251.26 324.011 1251.37 324.83H1249.36C1249.2 324.233 1248.86 323.705 1248.34 323.244C1247.81 322.778 1247.11 322.545 1246.22 322.545C1245.44 322.545 1244.75 322.75 1244.16 323.159C1243.57 323.562 1243.12 324.134 1242.79 324.872C1242.46 325.605 1242.3 326.466 1242.3 327.455C1242.3 328.466 1242.46 329.347 1242.78 330.097C1243.1 330.847 1243.56 331.429 1244.14 331.844C1244.73 332.259 1245.43 332.466 1246.22 332.466C1246.74 332.466 1247.22 332.375 1247.64 332.193C1248.07 332.011 1248.43 331.75 1248.73 331.409C1249.02 331.068 1249.23 330.659 1249.36 330.182H1251.37C1251.26 330.955 1250.97 331.651 1250.53 332.27C1250.08 332.884 1249.49 333.372 1248.76 333.736C1248.03 334.094 1247.19 334.273 1246.22 334.273ZM1260 320.909V322.614H1253.22V320.909H1260ZM1255.2 317.773H1257.21V330.25C1257.21 330.818 1257.29 331.244 1257.45 331.528C1257.63 331.807 1257.84 331.994 1258.1 332.091C1258.37 332.182 1258.65 332.227 1258.95 332.227C1259.17 332.227 1259.35 332.216 1259.49 332.193C1259.63 332.165 1259.75 332.142 1259.83 332.125L1260.24 333.932C1260.11 333.983 1259.91 334.034 1259.67 334.085C1259.43 334.142 1259.12 334.17 1258.74 334.17C1258.17 334.17 1257.62 334.048 1257.07 333.804C1256.53 333.56 1256.08 333.188 1255.72 332.688C1255.37 332.188 1255.2 331.557 1255.2 330.795V317.773ZM1272.16 316.545V334H1270.05V316.545H1272.16ZM1278.14 326.125V334H1276.13V320.909H1278.07V322.955H1278.24C1278.55 322.29 1279.02 321.756 1279.64 321.352C1280.27 320.943 1281.07 320.739 1282.06 320.739C1282.95 320.739 1283.72 320.92 1284.39 321.284C1285.05 321.642 1285.57 322.188 1285.94 322.92C1286.31 323.648 1286.49 324.568 1286.49 325.682V334H1284.48V325.818C1284.48 324.79 1284.22 323.989 1283.68 323.415C1283.15 322.835 1282.41 322.545 1281.48 322.545C1280.84 322.545 1280.27 322.685 1279.76 322.963C1279.26 323.241 1278.87 323.648 1278.58 324.182C1278.29 324.716 1278.14 325.364 1278.14 326.125ZM1296 320.909V322.614H1288.94V320.909H1296ZM1291.06 334V319.102C1291.06 318.352 1291.23 317.727 1291.58 317.227C1291.94 316.727 1292.39 316.352 1292.96 316.102C1293.52 315.852 1294.11 315.727 1294.74 315.727C1295.23 315.727 1295.63 315.767 1295.95 315.847C1296.26 315.926 1296.49 316 1296.65 316.068L1296.07 317.807C1295.96 317.773 1295.82 317.73 1295.64 317.679C1295.46 317.628 1295.23 317.602 1294.94 317.602C1294.28 317.602 1293.8 317.77 1293.5 318.105C1293.21 318.44 1293.07 318.932 1293.07 319.58V334H1291.06ZM1303.6 334.273C1302.41 334.273 1301.38 333.991 1300.49 333.429C1299.6 332.866 1298.91 332.08 1298.41 331.068C1297.91 330.057 1297.66 328.875 1297.66 327.523C1297.66 326.159 1297.91 324.969 1298.41 323.952C1298.91 322.935 1299.6 322.145 1300.49 321.582C1301.38 321.02 1302.41 320.739 1303.6 320.739C1304.78 320.739 1305.81 321.02 1306.7 321.582C1307.59 322.145 1308.28 322.935 1308.78 323.952C1309.28 324.969 1309.53 326.159 1309.53 327.523C1309.53 328.875 1309.28 330.057 1308.78 331.068C1308.28 332.08 1307.59 332.866 1306.7 333.429C1305.81 333.991 1304.78 334.273 1303.6 334.273ZM1303.6 332.466C1304.49 332.466 1305.23 332.236 1305.81 331.776C1306.39 331.315 1306.82 330.71 1307.1 329.96C1307.38 329.21 1307.52 328.398 1307.52 327.523C1307.52 326.648 1307.38 325.832 1307.1 325.077C1306.82 324.321 1306.39 323.71 1305.81 323.244C1305.23 322.778 1304.49 322.545 1303.6 322.545C1302.7 322.545 1301.96 322.778 1301.38 323.244C1300.8 323.71 1300.37 324.321 1300.09 325.077C1299.82 325.832 1299.68 326.648 1299.68 327.523C1299.68 328.398 1299.82 329.21 1300.09 329.96C1300.37 330.71 1300.8 331.315 1301.38 331.776C1301.96 332.236 1302.7 332.466 1303.6 332.466Z" fill="black"/>
<path d="M1173.11 804V786.545H1183.58V788.42H1175.23V794.318H1182.8V796.193H1175.23V804H1173.11ZM1190.78 804.307C1189.95 804.307 1189.2 804.151 1188.52 803.838C1187.84 803.52 1187.31 803.062 1186.91 802.466C1186.51 801.864 1186.31 801.136 1186.31 800.284C1186.31 799.534 1186.46 798.926 1186.76 798.46C1187.05 797.989 1187.45 797.619 1187.94 797.352C1188.44 797.085 1188.98 796.886 1189.58 796.756C1190.18 796.619 1190.78 796.511 1191.39 796.432C1192.19 796.33 1192.83 796.253 1193.33 796.202C1193.83 796.145 1194.19 796.051 1194.42 795.92C1194.65 795.79 1194.77 795.562 1194.77 795.239V795.17C1194.77 794.33 1194.54 793.676 1194.08 793.21C1193.62 792.744 1192.93 792.511 1192.01 792.511C1191.05 792.511 1190.29 792.722 1189.75 793.142C1189.2 793.562 1188.82 794.011 1188.6 794.489L1186.69 793.807C1187.03 793.011 1187.48 792.392 1188.05 791.949C1188.63 791.5 1189.25 791.187 1189.93 791.011C1190.61 790.83 1191.28 790.739 1191.94 790.739C1192.36 790.739 1192.84 790.79 1193.39 790.892C1193.94 790.989 1194.47 791.19 1194.98 791.497C1195.5 791.804 1195.93 792.267 1196.27 792.886C1196.61 793.506 1196.78 794.335 1196.78 795.375V804H1194.77V802.227H1194.67C1194.53 802.511 1194.3 802.815 1193.98 803.139C1193.67 803.463 1193.24 803.739 1192.71 803.966C1192.19 804.193 1191.54 804.307 1190.78 804.307ZM1191.09 802.5C1191.88 802.5 1192.55 802.344 1193.1 802.031C1193.65 801.719 1194.06 801.315 1194.34 800.821C1194.63 800.327 1194.77 799.807 1194.77 799.261V797.42C1194.68 797.523 1194.5 797.616 1194.21 797.702C1193.92 797.781 1193.59 797.852 1193.22 797.915C1192.85 797.972 1192.49 798.023 1192.13 798.068C1191.79 798.108 1191.51 798.142 1191.29 798.17C1190.77 798.239 1190.28 798.349 1189.82 798.503C1189.38 798.651 1189.01 798.875 1188.73 799.176C1188.46 799.472 1188.32 799.875 1188.32 800.386C1188.32 801.085 1188.58 801.614 1189.1 801.972C1189.62 802.324 1190.28 802.5 1191.09 802.5ZM1205.77 804.273C1204.54 804.273 1203.48 803.983 1202.6 803.403C1201.71 802.824 1201.03 802.026 1200.55 801.009C1200.08 799.991 1199.84 798.83 1199.84 797.523C1199.84 796.193 1200.08 795.02 1200.57 794.003C1201.06 792.98 1201.75 792.182 1202.63 791.608C1203.52 791.028 1204.55 790.739 1205.73 790.739C1206.65 790.739 1207.48 790.909 1208.22 791.25C1208.96 791.591 1209.57 792.068 1210.04 792.682C1210.51 793.295 1210.8 794.011 1210.92 794.83H1208.9C1208.75 794.233 1208.41 793.705 1207.88 793.244C1207.36 792.778 1206.65 792.545 1205.77 792.545C1204.98 792.545 1204.3 792.75 1203.71 793.159C1203.12 793.562 1202.66 794.134 1202.33 794.872C1202.01 795.605 1201.85 796.466 1201.85 797.455C1201.85 798.466 1202.01 799.347 1202.33 800.097C1202.65 800.847 1203.1 801.429 1203.69 801.844C1204.28 802.259 1204.97 802.466 1205.77 802.466C1206.29 802.466 1206.77 802.375 1207.19 802.193C1207.62 802.011 1207.98 801.75 1208.27 801.409C1208.57 801.068 1208.78 800.659 1208.9 800.182H1210.92C1210.8 800.955 1210.52 801.651 1210.07 802.27C1209.63 802.884 1209.04 803.372 1208.31 803.736C1207.58 804.094 1206.73 804.273 1205.77 804.273ZM1222.11 798.648V790.909H1224.12V804H1222.11V801.784H1221.97C1221.66 802.449 1221.19 803.014 1220.54 803.48C1219.89 803.94 1219.07 804.17 1218.08 804.17C1217.27 804.17 1216.54 803.991 1215.9 803.634C1215.27 803.27 1214.77 802.724 1214.4 801.997C1214.04 801.264 1213.86 800.341 1213.86 799.227V790.909H1215.87V799.091C1215.87 800.045 1216.13 800.807 1216.67 801.375C1217.21 801.943 1217.9 802.227 1218.73 802.227C1219.23 802.227 1219.74 802.099 1220.26 801.844C1220.78 801.588 1221.22 801.196 1221.57 800.668C1221.93 800.139 1222.11 799.466 1222.11 798.648ZM1229.81 786.545V804H1227.8V786.545H1229.81ZM1239.19 790.909V792.614H1232.41V790.909H1239.19ZM1234.38 787.773H1236.39V800.25C1236.39 800.818 1236.48 801.244 1236.64 801.528C1236.81 801.807 1237.03 801.994 1237.29 802.091C1237.56 802.182 1237.84 802.227 1238.13 802.227C1238.36 802.227 1238.54 802.216 1238.68 802.193C1238.82 802.165 1238.93 802.142 1239.02 802.125L1239.43 803.932C1239.29 803.983 1239.1 804.034 1238.86 804.085C1238.61 804.142 1238.3 804.17 1237.93 804.17C1237.36 804.17 1236.8 804.048 1236.26 803.804C1235.72 803.56 1235.27 803.188 1234.91 802.688C1234.56 802.188 1234.38 801.557 1234.38 800.795V787.773ZM1246.07 804.307C1245.24 804.307 1244.49 804.151 1243.81 803.838C1243.13 803.52 1242.6 803.062 1242.2 802.466C1241.8 801.864 1241.6 801.136 1241.6 800.284C1241.6 799.534 1241.75 798.926 1242.05 798.46C1242.34 797.989 1242.74 797.619 1243.23 797.352C1243.72 797.085 1244.27 796.886 1244.87 796.756C1245.47 796.619 1246.07 796.511 1246.68 796.432C1247.48 796.33 1248.12 796.253 1248.62 796.202C1249.12 796.145 1249.48 796.051 1249.71 795.92C1249.94 795.79 1250.06 795.562 1250.06 795.239V795.17C1250.06 794.33 1249.83 793.676 1249.37 793.21C1248.91 792.744 1248.22 792.511 1247.3 792.511C1246.34 792.511 1245.58 792.722 1245.04 793.142C1244.49 793.562 1244.11 794.011 1243.89 794.489L1241.98 793.807C1242.32 793.011 1242.77 792.392 1243.34 791.949C1243.91 791.5 1244.54 791.187 1245.22 791.011C1245.9 790.83 1246.57 790.739 1247.23 790.739C1247.65 790.739 1248.13 790.79 1248.68 790.892C1249.23 790.989 1249.76 791.19 1250.27 791.497C1250.79 791.804 1251.22 792.267 1251.56 792.886C1251.9 793.506 1252.07 794.335 1252.07 795.375V804H1250.06V802.227H1249.95C1249.82 802.511 1249.59 802.815 1249.27 803.139C1248.95 803.463 1248.53 803.739 1248 803.966C1247.47 804.193 1246.83 804.307 1246.07 804.307ZM1246.38 802.5C1247.17 802.5 1247.84 802.344 1248.39 802.031C1248.94 801.719 1249.35 801.315 1249.63 800.821C1249.91 800.327 1250.06 799.807 1250.06 799.261V797.42C1249.97 797.523 1249.78 797.616 1249.49 797.702C1249.21 797.781 1248.88 797.852 1248.51 797.915C1248.14 797.972 1247.78 798.023 1247.42 798.068C1247.08 798.108 1246.8 798.142 1246.58 798.17C1246.06 798.239 1245.57 798.349 1245.11 798.503C1244.66 798.651 1244.3 798.875 1244.02 799.176C1243.75 799.472 1243.61 799.875 1243.61 800.386C1243.61 801.085 1243.87 801.614 1244.39 801.972C1244.91 802.324 1245.57 802.5 1246.38 802.5ZM1261.43 790.909V792.614H1254.65V790.909H1261.43ZM1256.63 787.773H1258.64V800.25C1258.64 800.818 1258.72 801.244 1258.88 801.528C1259.05 801.807 1259.27 801.994 1259.53 802.091C1259.8 802.182 1260.08 802.227 1260.38 802.227C1260.6 802.227 1260.78 802.216 1260.92 802.193C1261.06 802.165 1261.18 802.142 1261.26 802.125L1261.67 803.932C1261.53 803.983 1261.34 804.034 1261.1 804.085C1260.86 804.142 1260.55 804.17 1260.17 804.17C1259.6 804.17 1259.05 804.048 1258.5 803.804C1257.96 803.56 1257.51 803.188 1257.15 802.688C1256.8 802.188 1256.63 801.557 1256.63 800.795V787.773ZM1264.46 804V790.909H1266.47V804H1264.46ZM1265.48 788.727C1265.09 788.727 1264.75 788.594 1264.47 788.327C1264.19 788.06 1264.05 787.739 1264.05 787.364C1264.05 786.989 1264.19 786.668 1264.47 786.401C1264.75 786.134 1265.09 786 1265.48 786C1265.87 786 1266.21 786.134 1266.49 786.401C1266.77 786.668 1266.91 786.989 1266.91 787.364C1266.91 787.739 1266.77 788.06 1266.49 788.327C1266.21 788.594 1265.87 788.727 1265.48 788.727ZM1280.86 790.909L1276.02 804H1273.97L1269.13 790.909H1271.31L1274.93 801.341H1275.06L1278.68 790.909H1280.86ZM1288.53 804.273C1287.27 804.273 1286.18 803.994 1285.27 803.438C1284.36 802.875 1283.66 802.091 1283.16 801.085C1282.67 800.074 1282.43 798.898 1282.43 797.557C1282.43 796.216 1282.67 795.034 1283.16 794.011C1283.66 792.983 1284.35 792.182 1285.23 791.608C1286.11 791.028 1287.15 790.739 1288.33 790.739C1289.01 790.739 1289.68 790.852 1290.35 791.08C1291.01 791.307 1291.62 791.676 1292.16 792.188C1292.71 792.693 1293.14 793.364 1293.47 794.199C1293.79 795.034 1293.95 796.062 1293.95 797.284V798.136H1283.86V796.398H1291.91C1291.91 795.659 1291.76 795 1291.46 794.42C1291.17 793.841 1290.76 793.384 1290.22 793.048C1289.69 792.713 1289.06 792.545 1288.33 792.545C1287.53 792.545 1286.83 792.744 1286.25 793.142C1285.67 793.534 1285.22 794.045 1284.91 794.676C1284.6 795.307 1284.44 795.983 1284.44 796.705V797.864C1284.44 798.852 1284.61 799.69 1284.95 800.378C1285.3 801.06 1285.78 801.58 1286.39 801.938C1287.01 802.29 1287.72 802.466 1288.53 802.466C1289.06 802.466 1289.54 802.392 1289.96 802.244C1290.4 802.091 1290.77 801.864 1291.08 801.562C1291.39 801.256 1291.63 800.875 1291.81 800.42L1293.75 800.966C1293.54 801.625 1293.2 802.205 1292.72 802.705C1292.23 803.199 1291.64 803.585 1290.93 803.864C1290.22 804.136 1289.42 804.273 1288.53 804.273ZM1187.16 824H1185.05C1184.92 823.392 1184.7 822.858 1184.39 822.398C1184.08 821.938 1183.71 821.551 1183.26 821.239C1182.83 820.92 1182.34 820.682 1181.81 820.523C1181.27 820.364 1180.72 820.284 1180.14 820.284C1179.08 820.284 1178.12 820.551 1177.26 821.085C1176.41 821.619 1175.73 822.406 1175.23 823.446C1174.73 824.486 1174.48 825.761 1174.48 827.273C1174.48 828.784 1174.73 830.06 1175.23 831.099C1175.73 832.139 1176.41 832.926 1177.26 833.46C1178.12 833.994 1179.08 834.261 1180.14 834.261C1180.72 834.261 1181.27 834.182 1181.81 834.023C1182.34 833.864 1182.83 833.628 1183.26 833.315C1183.71 832.997 1184.08 832.608 1184.39 832.148C1184.7 831.682 1184.92 831.148 1185.05 830.545H1187.16C1187 831.437 1186.71 832.236 1186.29 832.94C1185.87 833.645 1185.35 834.244 1184.72 834.739C1184.1 835.227 1183.39 835.599 1182.62 835.855C1181.84 836.111 1181.02 836.239 1180.14 836.239C1178.65 836.239 1177.32 835.875 1176.16 835.148C1175.01 834.42 1174.09 833.386 1173.43 832.045C1172.76 830.705 1172.43 829.114 1172.43 827.273C1172.43 825.432 1172.76 823.841 1173.43 822.5C1174.09 821.159 1175.01 820.125 1176.16 819.398C1177.32 818.67 1178.65 818.307 1180.14 818.307C1181.02 818.307 1181.84 818.435 1182.62 818.69C1183.39 818.946 1184.1 819.321 1184.72 819.815C1185.35 820.304 1185.87 820.901 1186.29 821.605C1186.71 822.304 1187 823.102 1187.16 824ZM1195.62 836.273C1194.44 836.273 1193.4 835.991 1192.51 835.429C1191.62 834.866 1190.93 834.08 1190.43 833.068C1189.94 832.057 1189.69 830.875 1189.69 829.523C1189.69 828.159 1189.94 826.969 1190.43 825.952C1190.93 824.935 1191.62 824.145 1192.51 823.582C1193.4 823.02 1194.44 822.739 1195.62 822.739C1196.8 822.739 1197.84 823.02 1198.72 823.582C1199.61 824.145 1200.31 824.935 1200.8 825.952C1201.3 826.969 1201.55 828.159 1201.55 829.523C1201.55 830.875 1201.3 832.057 1200.8 833.068C1200.31 834.08 1199.61 834.866 1198.72 835.429C1197.84 835.991 1196.8 836.273 1195.62 836.273ZM1195.62 834.466C1196.52 834.466 1197.26 834.236 1197.84 833.776C1198.42 833.315 1198.84 832.71 1199.12 831.96C1199.4 831.21 1199.54 830.398 1199.54 829.523C1199.54 828.648 1199.4 827.832 1199.12 827.077C1198.84 826.321 1198.42 825.71 1197.84 825.244C1197.26 824.778 1196.52 824.545 1195.62 824.545C1194.72 824.545 1193.98 824.778 1193.4 825.244C1192.82 825.71 1192.4 826.321 1192.12 827.077C1191.84 827.832 1191.7 828.648 1191.7 829.523C1191.7 830.398 1191.84 831.21 1192.12 831.96C1192.4 832.71 1192.82 833.315 1193.4 833.776C1193.98 834.236 1194.72 834.466 1195.62 834.466ZM1206.63 828.125V836H1204.62V822.909H1206.57V824.955H1206.74C1207.04 824.29 1207.51 823.756 1208.13 823.352C1208.76 822.943 1209.57 822.739 1210.55 822.739C1211.44 822.739 1212.22 822.92 1212.88 823.284C1213.55 823.642 1214.06 824.188 1214.43 824.92C1214.8 825.648 1214.99 826.568 1214.99 827.682V836H1212.97V827.818C1212.97 826.79 1212.71 825.989 1212.17 825.415C1211.64 824.835 1210.91 824.545 1209.97 824.545C1209.33 824.545 1208.76 824.685 1208.25 824.963C1207.75 825.241 1207.36 825.648 1207.07 826.182C1206.78 826.716 1206.63 827.364 1206.63 828.125ZM1224.35 822.909V824.614H1217.57V822.909H1224.35ZM1219.55 819.773H1221.56V832.25C1221.56 832.818 1221.64 833.244 1221.81 833.528C1221.98 833.807 1222.19 833.994 1222.45 834.091C1222.72 834.182 1223 834.227 1223.3 834.227C1223.52 834.227 1223.7 834.216 1223.84 834.193C1223.99 834.165 1224.1 834.142 1224.18 834.125L1224.59 835.932C1224.46 835.983 1224.27 836.034 1224.02 836.085C1223.78 836.142 1223.47 836.17 1223.09 836.17C1222.52 836.17 1221.97 836.048 1221.42 835.804C1220.88 835.56 1220.43 835.188 1220.08 834.688C1219.72 834.188 1219.55 833.557 1219.55 832.795V819.773ZM1231.23 836.307C1230.4 836.307 1229.65 836.151 1228.97 835.838C1228.3 835.52 1227.76 835.062 1227.36 834.466C1226.97 833.864 1226.77 833.136 1226.77 832.284C1226.77 831.534 1226.91 830.926 1227.21 830.46C1227.5 829.989 1227.9 829.619 1228.39 829.352C1228.89 829.085 1229.43 828.886 1230.03 828.756C1230.63 828.619 1231.24 828.511 1231.85 828.432C1232.64 828.33 1233.29 828.253 1233.78 828.202C1234.28 828.145 1234.64 828.051 1234.87 827.92C1235.1 827.79 1235.22 827.562 1235.22 827.239V827.17C1235.22 826.33 1234.99 825.676 1234.53 825.21C1234.08 824.744 1233.39 824.511 1232.46 824.511C1231.5 824.511 1230.75 824.722 1230.2 825.142C1229.66 825.562 1229.27 826.011 1229.05 826.489L1227.14 825.807C1227.48 825.011 1227.94 824.392 1228.5 823.949C1229.08 823.5 1229.7 823.187 1230.38 823.011C1231.06 822.83 1231.73 822.739 1232.39 822.739C1232.81 822.739 1233.29 822.79 1233.84 822.892C1234.39 822.989 1234.92 823.19 1235.43 823.497C1235.95 823.804 1236.38 824.267 1236.72 824.886C1237.06 825.506 1237.23 826.335 1237.23 827.375V836H1235.22V834.227H1235.12C1234.98 834.511 1234.75 834.815 1234.44 835.139C1234.12 835.463 1233.7 835.739 1233.17 835.966C1232.64 836.193 1231.99 836.307 1231.23 836.307ZM1231.54 834.5C1232.33 834.5 1233 834.344 1233.55 834.031C1234.1 833.719 1234.52 833.315 1234.79 832.821C1235.08 832.327 1235.22 831.807 1235.22 831.261V829.42C1235.14 829.523 1234.95 829.616 1234.66 829.702C1234.37 829.781 1234.04 829.852 1233.67 829.915C1233.3 829.972 1232.94 830.023 1232.59 830.068C1232.24 830.108 1231.96 830.142 1231.74 830.17C1231.22 830.239 1230.73 830.349 1230.28 830.503C1229.83 830.651 1229.47 830.875 1229.19 831.176C1228.91 831.472 1228.78 831.875 1228.78 832.386C1228.78 833.085 1229.04 833.614 1229.55 833.972C1230.08 834.324 1230.74 834.5 1231.54 834.5ZM1246.22 836.273C1244.99 836.273 1243.94 835.983 1243.05 835.403C1242.16 834.824 1241.48 834.026 1241.01 833.009C1240.53 831.991 1240.29 830.83 1240.29 829.523C1240.29 828.193 1240.53 827.02 1241.02 826.003C1241.52 824.98 1242.2 824.182 1243.09 823.608C1243.97 823.028 1245.01 822.739 1246.19 822.739C1247.11 822.739 1247.94 822.909 1248.68 823.25C1249.41 823.591 1250.02 824.068 1250.49 824.682C1250.96 825.295 1251.26 826.011 1251.37 826.83H1249.36C1249.2 826.233 1248.86 825.705 1248.34 825.244C1247.81 824.778 1247.11 824.545 1246.22 824.545C1245.44 824.545 1244.75 824.75 1244.16 825.159C1243.57 825.562 1243.12 826.134 1242.79 826.872C1242.46 827.605 1242.3 828.466 1242.3 829.455C1242.3 830.466 1242.46 831.347 1242.78 832.097C1243.1 832.847 1243.56 833.429 1244.14 833.844C1244.73 834.259 1245.43 834.466 1246.22 834.466C1246.74 834.466 1247.22 834.375 1247.64 834.193C1248.07 834.011 1248.43 833.75 1248.73 833.409C1249.02 833.068 1249.23 832.659 1249.36 832.182H1251.37C1251.26 832.955 1250.97 833.651 1250.53 834.27C1250.08 834.884 1249.49 835.372 1248.76 835.736C1248.03 836.094 1247.19 836.273 1246.22 836.273ZM1260 822.909V824.614H1253.22V822.909H1260ZM1255.2 819.773H1257.21V832.25C1257.21 832.818 1257.29 833.244 1257.45 833.528C1257.63 833.807 1257.84 833.994 1258.1 834.091C1258.37 834.182 1258.65 834.227 1258.95 834.227C1259.17 834.227 1259.35 834.216 1259.49 834.193C1259.63 834.165 1259.75 834.142 1259.83 834.125L1260.24 835.932C1260.11 835.983 1259.91 836.034 1259.67 836.085C1259.43 836.142 1259.12 836.17 1258.74 836.17C1258.17 836.17 1257.62 836.048 1257.07 835.804C1256.53 835.56 1256.08 835.188 1255.72 834.688C1255.37 834.188 1255.2 833.557 1255.2 832.795V819.773ZM1272.16 818.545V836H1270.05V818.545H1272.16ZM1278.14 828.125V836H1276.13V822.909H1278.07V824.955H1278.24C1278.55 824.29 1279.02 823.756 1279.64 823.352C1280.27 822.943 1281.07 822.739 1282.06 822.739C1282.95 822.739 1283.72 822.92 1284.39 823.284C1285.05 823.642 1285.57 824.188 1285.94 824.92C1286.31 825.648 1286.49 826.568 1286.49 827.682V836H1284.48V827.818C1284.48 826.79 1284.22 825.989 1283.68 825.415C1283.15 824.835 1282.41 824.545 1281.48 824.545C1280.84 824.545 1280.27 824.685 1279.76 824.963C1279.26 825.241 1278.87 825.648 1278.58 826.182C1278.29 826.716 1278.14 827.364 1278.14 828.125ZM1296 822.909V824.614H1288.94V822.909H1296ZM1291.06 836V821.102C1291.06 820.352 1291.23 819.727 1291.58 819.227C1291.94 818.727 1292.39 818.352 1292.96 818.102C1293.52 817.852 1294.11 817.727 1294.74 817.727C1295.23 817.727 1295.63 817.767 1295.95 817.847C1296.26 817.926 1296.49 818 1296.65 818.068L1296.07 819.807C1295.96 819.773 1295.82 819.73 1295.64 819.679C1295.46 819.628 1295.23 819.602 1294.94 819.602C1294.28 819.602 1293.8 819.77 1293.5 820.105C1293.21 820.44 1293.07 820.932 1293.07 821.58V836H1291.06ZM1303.6 836.273C1302.41 836.273 1301.38 835.991 1300.49 835.429C1299.6 834.866 1298.91 834.08 1298.41 833.068C1297.91 832.057 1297.66 830.875 1297.66 829.523C1297.66 828.159 1297.91 826.969 1298.41 825.952C1298.91 824.935 1299.6 824.145 1300.49 823.582C1301.38 823.02 1302.41 822.739 1303.6 822.739C1304.78 822.739 1305.81 823.02 1306.7 823.582C1307.59 824.145 1308.28 824.935 1308.78 825.952C1309.28 826.969 1309.53 828.159 1309.53 829.523C1309.53 830.875 1309.28 832.057 1308.78 833.068C1308.28 834.08 1307.59 834.866 1306.7 835.429C1305.81 835.991 1304.78 836.273 1303.6 836.273ZM1303.6 834.466C1304.49 834.466 1305.23 834.236 1305.81 833.776C1306.39 833.315 1306.82 832.71 1307.1 831.96C1307.38 831.21 1307.52 830.398 1307.52 829.523C1307.52 828.648 1307.38 827.832 1307.1 827.077C1306.82 826.321 1306.39 825.71 1305.81 825.244C1305.23 824.778 1304.49 824.545 1303.6 824.545C1302.7 824.545 1301.96 824.778 1301.38 825.244C1300.8 825.71 1300.37 826.321 1300.09 827.077C1299.82 827.832 1299.68 828.648 1299.68 829.523C1299.68 830.398 1299.82 831.21 1300.09 831.96C1300.37 832.71 1300.8 833.315 1301.38 833.776C1301.96 834.236 1302.7 834.466 1303.6 834.466Z" fill="black"/>
</svg>
